<svg width="337" height="242" viewBox="0 0 337 242" fill="none" xmlns="http://www.w3.org/2000/svg">
<path fill-rule="evenodd" clip-rule="evenodd" d="M15.1092 226.638C30.2184 241.748 60.4368 241.748 120.874 241.748C139.403 241.748 155.091 241.748 168.375 241.312C181.657 241.747 197.344 241.747 215.871 241.747C276.307 241.747 306.526 241.747 321.635 226.638C336.744 211.529 336.744 181.311 336.744 120.874C336.744 60.437 336.744 30.2186 321.635 15.1094C306.526 0.000167847 276.307 0.000167847 215.871 0.000167847C197.342 0.000167847 181.653 0.000167847 168.369 0.435577C155.087 0.000350952 139.4 0.000350952 120.874 0.000350952C60.4368 0.000350952 30.2184 0.000350952 15.1092 15.1096C0 30.2188 0 60.4371 0 120.874C0 181.311 0 211.529 15.1092 226.638Z" fill="#FFDD2D"/>
<mask id="mask0_2060_12281" style="mask-type:alpha" maskUnits="userSpaceOnUse" x="0" y="0" width="337" height="242">
<path fill-rule="evenodd" clip-rule="evenodd" d="M15.1092 226.638C30.2184 241.748 60.4368 241.748 120.874 241.748C139.403 241.748 155.091 241.748 168.375 241.312C181.657 241.747 197.344 241.747 215.871 241.747C276.307 241.747 306.526 241.747 321.635 226.638C336.744 211.529 336.744 181.311 336.744 120.874C336.744 60.437 336.744 30.2186 321.635 15.1094C306.526 0.000167847 276.307 0.000167847 215.871 0.000167847C197.342 0.000167847 181.653 0.000167847 168.369 0.435577C155.087 0.000350952 139.4 0.000350952 120.874 0.000350952C60.4368 0.000350952 30.2184 0.000350952 15.1092 15.1096C0 30.2188 0 60.4371 0 120.874C0 181.311 0 211.529 15.1092 226.638Z" fill="#FFDD2D"/>
</mask>
<g mask="url(#mask0_2060_12281)">
<path d="M37 53.5574C37 42.2039 46.2039 33 57.5574 33H337V242H37V53.5574Z" fill="#FBFBFB"/>
<path d="M106.79 71L111.034 59.4856H112.498L116.726 71H115.262L114.209 68.0392H109.307L108.238 71H106.79ZM109.718 66.9206H113.798L111.758 61.2292L109.718 66.9206ZM118.355 71V62.8412H119.605L119.687 64.3052C119.951 63.7898 120.329 63.3841 120.822 63.088C121.316 62.7919 121.875 62.6439 122.5 62.6439C123.465 62.6439 124.233 62.9399 124.803 63.5321C125.384 64.1133 125.675 65.0125 125.675 66.2298V71H124.293V66.3778C124.293 64.6781 123.591 63.8282 122.188 63.8282C121.486 63.8282 120.899 64.0859 120.428 64.6013C119.967 65.1057 119.737 65.8295 119.737 66.7726V71H118.355ZM128.607 61.0318C128.333 61.0318 128.103 60.9441 127.916 60.7687C127.741 60.5822 127.653 60.352 127.653 60.0778C127.653 59.8146 127.741 59.5953 127.916 59.4198C128.103 59.2444 128.333 59.1566 128.607 59.1566C128.87 59.1566 129.095 59.2444 129.282 59.4198C129.468 59.5953 129.561 59.8146 129.561 60.0778C129.561 60.352 129.468 60.5822 129.282 60.7687C129.095 60.9441 128.87 61.0318 128.607 61.0318ZM127.916 71V62.8412H129.298V71H127.916ZM131.704 71V59.1566H133.086V71H131.704ZM143.191 71.1974C142.401 71.1974 141.705 71.0548 141.102 70.7697C140.51 70.4736 140.044 70.0679 139.704 69.5525C139.375 69.0261 139.21 68.4065 139.21 67.6937C139.21 66.9151 139.435 66.2243 139.885 65.6211C140.345 65.007 141.009 64.5245 141.875 64.1736C141.502 63.7679 141.233 63.3841 141.069 63.0222C140.904 62.6493 140.822 62.2491 140.822 61.8214C140.822 61.0867 141.08 60.4835 141.595 60.012C142.122 59.5295 142.84 59.2882 143.75 59.2882C144.342 59.2882 144.858 59.4034 145.296 59.6337C145.735 59.853 146.075 60.16 146.316 60.5548C146.557 60.9496 146.667 61.3992 146.645 61.9036H145.28C145.291 61.4102 145.137 61.0373 144.819 60.7851C144.512 60.5329 144.156 60.4068 143.75 60.4068C143.257 60.4068 142.873 60.5384 142.599 60.8016C142.324 61.0647 142.187 61.3992 142.187 61.805C142.187 62.1559 142.281 62.4958 142.467 62.8248C142.664 63.1538 142.955 63.5211 143.339 63.9269L146.974 67.595C147.292 67.1345 147.638 66.5807 148.01 65.9337L148.52 65.0454H149.984L149.261 66.3285C148.778 67.1948 148.317 67.9185 147.879 68.4997L150.363 71H148.619L147.089 69.4538C146.508 70.0789 145.905 70.5285 145.28 70.8026C144.655 71.0658 143.958 71.1974 143.191 71.1974ZM140.592 67.6444C140.592 68.3243 140.833 68.889 141.316 69.3386C141.798 69.7882 142.429 70.0131 143.207 70.0131C143.788 70.0131 144.315 69.9034 144.786 69.6841C145.269 69.4538 145.74 69.0809 146.201 68.5655L142.714 65.029C141.99 65.3141 141.453 65.676 141.102 66.1146C140.762 66.5533 140.592 67.0632 140.592 67.6444ZM156.187 71V59.4856H157.568L163.704 68.7136V59.4856H165.086V71H163.704L157.568 61.7721V71H156.187ZM171.114 71.1974C170.335 71.1974 169.644 71.0219 169.041 70.671C168.438 70.3091 167.961 69.8102 167.61 69.1742C167.27 68.5381 167.1 67.7869 167.1 66.9206C167.1 66.0653 167.27 65.3196 167.61 64.6835C167.95 64.0365 168.421 63.5376 169.024 63.1867C169.639 62.8248 170.346 62.6439 171.146 62.6439C171.936 62.6439 172.616 62.8248 173.186 63.1867C173.767 63.5376 174.211 64.0037 174.518 64.5849C174.826 65.1661 174.979 65.7911 174.979 66.46C174.979 66.5807 174.974 66.7013 174.963 66.8219C174.963 66.9426 174.963 67.0796 174.963 67.2332H168.465C168.498 67.8582 168.641 68.3791 168.893 68.7958C169.156 69.2016 169.48 69.5086 169.863 69.717C170.258 69.9253 170.675 70.0295 171.114 70.0295C171.684 70.0295 172.161 69.8979 172.545 69.6347C172.928 69.3715 173.208 69.0151 173.383 68.5655H174.749C174.529 69.3222 174.107 69.9527 173.482 70.4572C172.868 70.9507 172.079 71.1974 171.114 71.1974ZM171.114 63.8117C170.456 63.8117 169.869 64.0146 169.353 64.4204C168.849 64.8151 168.558 65.3963 168.482 66.164H173.614C173.581 65.4292 173.329 64.8535 172.857 64.4368C172.386 64.0201 171.804 63.8117 171.114 63.8117ZM176.81 71V59.1566H178.192V64.2394C178.466 63.735 178.856 63.3457 179.36 63.0715C179.864 62.7864 180.413 62.6439 181.005 62.6439C181.948 62.6439 182.705 62.9399 183.275 63.5321C183.845 64.1133 184.13 65.0125 184.13 66.2298V71H182.765V66.3778C182.765 64.6781 182.08 63.8282 180.709 63.8282C179.996 63.8282 179.398 64.0859 178.916 64.6013C178.433 65.1057 178.192 65.8295 178.192 66.7726V71H176.81ZM188.938 71.1974C188.258 71.1974 187.693 71.0822 187.244 70.852C186.794 70.6217 186.459 70.3146 186.24 69.9308C186.021 69.547 185.911 69.1303 185.911 68.6807C185.911 67.8473 186.229 67.2057 186.865 66.7561C187.501 66.3065 188.368 66.0817 189.464 66.0817H191.668V65.983C191.668 65.2702 191.482 64.7329 191.109 64.371C190.736 63.9982 190.237 63.8117 189.612 63.8117C189.075 63.8117 188.609 63.9488 188.214 64.223C187.83 64.4862 187.589 64.8755 187.49 65.3909H186.076C186.13 64.7987 186.328 64.2997 186.668 63.894C187.019 63.4882 187.452 63.1812 187.967 62.9728C188.483 62.7535 189.031 62.6439 189.612 62.6439C190.753 62.6439 191.608 62.9509 192.178 63.565C192.759 64.1681 193.05 64.9741 193.05 65.983V71H191.816L191.734 69.536C191.504 69.9966 191.164 70.3914 190.714 70.7204C190.276 71.0384 189.683 71.1974 188.938 71.1974ZM189.152 70.0295C189.678 70.0295 190.128 69.8924 190.5 69.6183C190.884 69.3441 191.175 68.9877 191.372 68.5491C191.57 68.1104 191.668 67.6499 191.668 67.1674V67.1509H189.579C188.768 67.1509 188.192 67.2935 187.852 67.5786C187.523 67.8527 187.359 68.1982 187.359 68.6149C187.359 69.0426 187.512 69.388 187.819 69.6512C188.137 69.9034 188.581 70.0295 189.152 70.0295Z" fill="#525F75"/>
<circle cx="74.5744" cy="66.4348" r="10.5744" fill="#00848B"/>
<path d="M70.2985 71.5601L73.9361 61.6906H75.1909L78.8144 71.5601H77.5596L76.6572 69.0222H72.4556L71.5392 71.5601H70.2985ZM72.8081 68.0635H76.3047L74.5564 63.1851L72.8081 68.0635Z" fill="white"/>
<circle cx="86.3225" cy="66.4353" r="10.5744" fill="#9747FF"/>
<path d="M82.6669 71.5605V61.6911H83.8512L89.1102 69.6008V61.6911H90.2946V71.5605H89.1102L83.8512 63.6509V71.5605H82.6669Z" fill="white"/>
<rect x="106" y="90" width="128" height="9" rx="4.5" fill="#EEEDF0"/>
<rect x="106" y="196" width="128" height="9" rx="4.5" fill="#EEEDF0"/>
<rect x="106.297" y="108.732" width="88.1202" height="9.39948" rx="4.69974" fill="#EEEDF0"/>
<rect x="229" y="56" width="81.2736" height="19" rx="3.47761" fill="#E3FCEF"/>
<path d="M234.526 70H236.499L237.166 67.8208H240.335L241.001 70H242.981L239.855 61.0156H237.645L234.526 70ZM238.697 62.8088H238.809L239.905 66.4137H237.595L238.697 62.8088ZM244.409 70H246.289V67.1671H248.113C250.006 67.1671 251.27 65.9468 251.27 64.0976V64.0851C251.27 62.2359 250.006 61.0156 248.113 61.0156H244.409V70ZM247.653 62.5037C248.73 62.5037 249.365 63.0703 249.365 64.0913V64.1038C249.365 65.1249 248.73 65.6977 247.653 65.6977H246.289V62.5037H247.653ZM252.904 70H254.784V67.1671H256.608C258.501 67.1671 259.765 65.9468 259.765 64.0976V64.0851C259.765 62.2359 258.501 61.0156 256.608 61.0156H252.904V70ZM256.147 62.5037C257.225 62.5037 257.86 63.0703 257.86 64.0913V64.1038C257.86 65.1249 257.225 65.6977 256.147 65.6977H254.784V62.5037H256.147ZM261.398 70H263.279V66.7126H264.817L266.491 70H268.621L266.728 66.4324C267.755 66.0277 268.353 65.0377 268.353 63.8859V63.8734C268.353 62.1052 267.182 61.0156 265.14 61.0156H261.398V70ZM263.279 65.3428V62.485H264.91C265.85 62.485 266.429 63.0453 266.429 63.9108V63.9232C266.429 64.8074 265.875 65.3428 264.935 65.3428H263.279ZM274.083 70.2304C276.736 70.2304 278.404 68.4123 278.404 65.5109V65.4985C278.404 62.5971 276.729 60.7852 274.083 60.7852C271.437 60.7852 269.756 62.5908 269.756 65.4985V65.5109C269.756 68.4123 271.412 70.2304 274.083 70.2304ZM274.083 68.6365C272.602 68.6365 271.674 67.4099 271.674 65.5109V65.4985C271.674 63.5933 272.62 62.3791 274.083 62.3791C275.54 62.3791 276.487 63.5933 276.487 65.4985V65.5109C276.487 67.4099 275.546 68.6365 274.083 68.6365ZM282.161 70H284.477L287.472 61.0156H285.355L283.375 67.908H283.263L281.277 61.0156H279.166L282.161 70ZM288.912 70H294.865V68.4497H290.793V66.1771H294.634V64.7326H290.793V62.5659H294.865V61.0156H288.912V70ZM296.747 70H300.284C302.973 70 304.499 68.3563 304.499 65.4549V65.4424C304.499 62.6282 302.955 61.0156 300.284 61.0156H296.747V70ZM298.627 68.4497V62.5659H299.985C301.616 62.5659 302.581 63.6244 302.581 65.4736V65.486C302.581 67.4037 301.647 68.4497 299.985 68.4497H298.627Z" fill="#006644"/>
<rect x="106" y="138" width="147" height="42" rx="4" fill="#0058D8"/>
<path d="M139.293 163.5H142.302C144.785 163.5 146.223 161.964 146.223 159.319V159.307C146.223 156.691 144.774 155.166 142.302 155.166H139.293V163.5ZM140.587 162.385V156.281H142.158C143.884 156.281 144.907 157.407 144.907 159.325V159.336C144.907 161.271 143.902 162.385 142.158 162.385H140.587ZM150.491 163.621C152.328 163.621 153.454 162.391 153.454 160.37V160.358C153.454 158.337 152.322 157.107 150.491 157.107C148.655 157.107 147.523 158.343 147.523 160.358V160.37C147.523 162.391 148.649 163.621 150.491 163.621ZM150.491 162.576C149.411 162.576 148.805 161.762 148.805 160.37V160.358C148.805 158.966 149.411 158.152 150.491 158.152C151.565 158.152 152.178 158.966 152.178 160.358V160.37C152.178 161.756 151.565 162.576 150.491 162.576ZM155.914 163.5H157.19L158.484 158.822H158.582L159.882 163.5H161.17L162.896 157.228H161.655L160.534 162.068H160.436L159.142 157.228H157.953L156.659 162.068H156.567L155.441 157.228H154.182L155.914 163.5ZM164.178 163.5H165.432V159.821C165.432 158.811 166.003 158.181 166.922 158.181C167.84 158.181 168.273 158.695 168.273 159.735V163.5H169.52V159.44C169.52 157.944 168.747 157.107 167.343 157.107C166.431 157.107 165.83 157.511 165.524 158.181H165.432V157.228H164.178V163.5ZM171.328 163.5H172.581V154.768H171.328V163.5ZM177.103 163.621C178.94 163.621 180.066 162.391 180.066 160.37V160.358C180.066 158.337 178.934 157.107 177.103 157.107C175.267 157.107 174.135 158.343 174.135 160.358V160.37C174.135 162.391 175.261 163.621 177.103 163.621ZM177.103 162.576C176.023 162.576 175.417 161.762 175.417 160.37V160.358C175.417 158.966 176.023 158.152 177.103 158.152C178.177 158.152 178.79 158.966 178.79 160.358V160.37C178.79 161.756 178.177 162.576 177.103 162.576ZM183.283 163.604C184.114 163.604 184.773 163.246 185.142 162.611H185.241V163.5H186.482V159.209C186.482 157.892 185.593 157.107 184.016 157.107C182.59 157.107 181.602 157.794 181.452 158.822L181.446 158.863H182.653L182.659 158.839C182.809 158.395 183.265 158.141 183.958 158.141C184.807 158.141 185.241 158.522 185.241 159.209V159.763L183.543 159.862C182.047 159.954 181.204 160.607 181.204 161.727V161.739C181.204 162.876 182.087 163.604 183.283 163.604ZM182.451 161.687V161.675C182.451 161.109 182.844 160.797 183.71 160.745L185.241 160.647V161.184C185.241 161.993 184.553 162.605 183.618 162.605C182.942 162.605 182.451 162.264 182.451 161.687ZM190.536 163.604C191.414 163.604 192.101 163.2 192.465 162.512H192.563V163.5H193.811V154.768H192.563V158.221H192.465C192.13 157.546 191.397 157.118 190.536 157.118C188.942 157.118 187.938 158.372 187.938 160.358V160.37C187.938 162.339 188.96 163.604 190.536 163.604ZM190.894 162.536C189.843 162.536 189.214 161.715 189.214 160.37V160.358C189.214 159.013 189.843 158.193 190.894 158.193C191.934 158.193 192.581 159.018 192.581 160.358V160.37C192.581 161.71 191.94 162.536 190.894 162.536ZM200.637 163.5H201.971L204.235 157.228H202.918L201.359 162.229H201.261L199.696 157.228H198.368L200.637 163.5ZM206.147 156.108C206.574 156.108 206.932 155.755 206.932 155.328C206.932 154.895 206.574 154.543 206.147 154.543C205.714 154.543 205.361 154.895 205.361 155.328C205.361 155.755 205.714 156.108 206.147 156.108ZM205.517 163.5H206.765V157.228H205.517V163.5ZM210.871 163.621C212.361 163.621 213.47 162.83 213.47 161.669V161.658C213.47 160.751 212.892 160.237 211.685 159.954L210.692 159.729C209.987 159.561 209.698 159.319 209.698 158.926V158.915C209.698 158.412 210.195 158.071 210.882 158.071C211.587 158.071 212.032 158.401 212.153 158.839V158.851H213.348V158.845C213.239 157.823 212.32 157.107 210.888 157.107C209.467 157.107 208.451 157.892 208.451 158.984V158.99C208.451 159.908 209 160.445 210.184 160.716L211.183 160.947C211.91 161.115 212.205 161.381 212.205 161.773V161.785C212.205 162.299 211.668 162.651 210.894 162.651C210.149 162.651 209.693 162.333 209.537 161.86L209.531 161.854H208.278V161.86C208.399 162.911 209.358 163.621 210.871 163.621ZM216.686 163.604C217.518 163.604 218.176 163.246 218.546 162.611H218.644V163.5H219.886V159.209C219.886 157.892 218.997 157.107 217.42 157.107C215.993 157.107 215.006 157.794 214.856 158.822L214.85 158.863H216.057L216.063 158.839C216.213 158.395 216.669 158.141 217.362 158.141C218.211 158.141 218.644 158.522 218.644 159.209V159.763L216.946 159.862C215.451 159.954 214.607 160.607 214.607 161.727V161.739C214.607 162.876 215.491 163.604 216.686 163.604ZM215.855 161.687V161.675C215.855 161.109 216.248 160.797 217.114 160.745L218.644 160.647V161.184C218.644 161.993 217.957 162.605 217.021 162.605C216.346 162.605 215.855 162.264 215.855 161.687Z" fill="white"/>
</g>
<path fill-rule="evenodd" clip-rule="evenodd" d="M15.1092 226.638C30.2184 241.748 60.4368 241.748 120.874 241.748C139.403 241.748 155.091 241.748 168.375 241.312C181.657 241.747 197.344 241.747 215.871 241.747C276.307 241.747 306.526 241.747 321.635 226.638C336.744 211.529 336.744 181.311 336.744 120.874C336.744 60.437 336.744 30.2186 321.635 15.1094C306.526 0.000167847 276.307 0.000167847 215.871 0.000167847C197.342 0.000167847 181.653 0.000167847 168.369 0.435577C155.087 0.000350952 139.4 0.000350952 120.874 0.000350952C60.4368 0.000350952 30.2184 0.000350952 15.1092 15.1096C0 30.2187 0 60.4371 0 120.874C0 181.311 0 211.529 15.1092 226.638Z" fill="url(#paint0_linear_2060_12281)"/>
<defs>
<linearGradient id="paint0_linear_2060_12281" x1="201.636" y1="241.471" x2="201.636" y2="192.602" gradientUnits="userSpaceOnUse">
<stop stop-color="#FFDD2D" stop-opacity="0.1"/>
<stop offset="1" stop-color="#FFDD2D" stop-opacity="0"/>
</linearGradient>
</defs>
</svg>
