<svg width="337" height="242" viewBox="0 0 337 242" fill="none" xmlns="http://www.w3.org/2000/svg">
<path fill-rule="evenodd" clip-rule="evenodd" d="M15.1092 226.638C30.2184 241.747 60.4368 241.747 120.874 241.747C139.4 241.747 155.087 241.747 168.369 241.312C181.653 241.748 197.342 241.748 215.871 241.748C276.307 241.748 306.526 241.748 321.635 226.638C336.744 211.529 336.744 181.311 336.744 120.874C336.744 60.4371 336.744 30.2187 321.635 15.1095C306.526 0.000335693 276.307 0.000335693 215.871 0.000335693C197.344 0.000335693 181.657 0.000335693 168.375 0.435562C155.091 0.000152588 139.403 0.000152588 120.874 0.000152588C60.4368 0.000152588 30.2184 0.000152588 15.1092 15.1093C0 30.2186 0 60.437 0 120.874C0 181.311 0 211.529 15.1092 226.638Z" fill="#9747FF"/>
<mask id="mask0_2060_12253" style="mask-type:alpha" maskUnits="userSpaceOnUse" x="0" y="0" width="337" height="242">
<path fill-rule="evenodd" clip-rule="evenodd" d="M15.1092 226.638C30.2184 241.747 60.4368 241.747 120.874 241.747C139.4 241.747 155.087 241.747 168.369 241.312C181.653 241.748 197.342 241.748 215.871 241.748C276.307 241.748 306.526 241.748 321.635 226.638C336.744 211.529 336.744 181.311 336.744 120.874C336.744 60.4371 336.744 30.2187 321.635 15.1095C306.526 0.000335693 276.307 0.000335693 215.871 0.000335693C197.344 0.000335693 181.657 0.000335693 168.375 0.435562C155.091 0.000152588 139.403 0.000152588 120.874 0.000152588C60.4368 0.000152588 30.2184 0.000152588 15.1092 15.1093C0 30.2186 0 60.437 0 120.874C0 181.311 0 211.529 15.1092 226.638Z" fill="#00848B"/>
</mask>
<g mask="url(#mask0_2060_12253)">
<path d="M27.9243 60.9424C27.9243 45.4291 40.5004 32.853 56.0137 32.853H280.729C296.243 32.853 308.819 45.4291 308.819 60.9425V243.524H27.9243V60.9424Z" fill="#FBFBFB"/>
<rect x="126.237" y="45.1421" width="84.2683" height="7.02236" rx="3.51118" fill="#D9D9D9"/>
<path d="M38.457 85.5207C38.457 73.8856 47.8891 64.4536 59.5241 64.4536H282.484C291.21 64.4536 298.284 71.5277 298.284 80.2539V243.524H38.457V85.5207Z" fill="#F1F0F0"/>
<mask id="mask1_2060_12253" style="mask-type:alpha" maskUnits="userSpaceOnUse" x="38" y="64" width="261" height="180">
<path d="M38.4595 85.5212C38.4595 73.8861 47.8915 64.4541 59.5265 64.4541H282.486C291.213 64.4541 298.287 71.5281 298.287 80.2544V243.524H38.4595V85.5212Z" fill="#F1F0F0"/>
</mask>
<g mask="url(#mask1_2060_12253)">
<rect x="65.6101" y="93.302" width="16.6876" height="16.6876" rx="1.51706" fill="#252D3D" stroke="#252D3D" stroke-width="1.51706"/>
<path d="M72.279 104.612V103.747H73.8537V99.378L72.3518 99.651V98.8682L74.2269 98.2402H74.8185V103.747H76.5116V104.612H72.279Z" fill="#D4D3D4"/>
<rect x="139.442" y="93.302" width="16.6876" height="16.6876" rx="1.51706" fill="#FAFBFC" stroke="#DFE1E6" stroke-width="1.51706"/>
<path d="M146.147 104.612V103.847C146.772 103.35 147.319 102.891 147.786 102.473C148.259 102.054 148.629 101.651 148.896 101.262C149.163 100.874 149.297 100.479 149.297 100.079C149.297 99.7451 149.203 99.4842 149.015 99.296C148.827 99.1019 148.572 99.0048 148.25 99.0048C147.88 99.0048 147.595 99.1231 147.394 99.3598C147.194 99.5904 147.094 99.8665 147.094 100.188H146.157C146.163 99.739 146.257 99.3628 146.439 99.0594C146.621 98.756 146.867 98.5254 147.176 98.3676C147.492 98.2098 147.85 98.1309 148.25 98.1309C148.899 98.1309 149.4 98.3069 149.752 98.6589C150.104 99.0048 150.28 99.469 150.28 100.052C150.28 100.422 150.198 100.78 150.034 101.126C149.876 101.465 149.667 101.79 149.406 102.1C149.145 102.409 148.854 102.703 148.532 102.982C148.217 103.262 147.898 103.529 147.576 103.784H150.453V104.612H146.147Z" fill="#D4D3D4"/>
<rect x="215.292" y="93.302" width="16.6876" height="16.6876" rx="1.51706" fill="#FAFBFC" stroke="#DFE1E6" stroke-width="1.51706"/>
<path d="M224.136 104.721C223.717 104.721 223.338 104.642 222.998 104.484C222.658 104.327 222.388 104.096 222.188 103.793C221.988 103.483 221.879 103.11 221.86 102.673H222.825C222.844 103.007 222.965 103.283 223.189 103.501C223.42 103.72 223.736 103.829 224.136 103.829C224.531 103.829 224.84 103.732 225.065 103.538C225.289 103.344 225.401 103.077 225.401 102.737C225.401 102.361 225.265 102.084 224.992 101.908C224.719 101.732 224.385 101.644 223.99 101.644H223.426V100.789H223.909C224.267 100.789 224.561 100.716 224.791 100.57C225.022 100.425 225.137 100.197 225.137 99.8877C225.137 99.6207 225.049 99.4113 224.873 99.2596C224.697 99.1019 224.449 99.023 224.127 99.023C223.799 99.023 223.538 99.111 223.344 99.2869C223.15 99.4629 223.041 99.6874 223.016 99.9605H222.061C222.079 99.5964 222.176 99.2778 222.352 99.0048C222.528 98.7317 222.768 98.5193 223.071 98.3676C223.375 98.2098 223.726 98.1309 224.127 98.1309C224.564 98.1309 224.928 98.2068 225.219 98.3585C225.511 98.5041 225.729 98.7014 225.875 98.9502C226.02 99.199 226.093 99.4781 226.093 99.7876C226.093 100.103 225.999 100.376 225.811 100.607C225.629 100.831 225.407 100.995 225.146 101.098V101.153C225.498 101.25 225.787 101.432 226.011 101.699C226.242 101.96 226.357 102.312 226.357 102.755C226.357 103.113 226.269 103.444 226.093 103.747C225.923 104.044 225.671 104.281 225.338 104.457C225.01 104.633 224.609 104.721 224.136 104.721Z" fill="#D4D3D4"/>
<rect x="288.11" y="93.302" width="16.6876" height="16.6876" rx="1.51706" fill="#FAFBFC" stroke="#DFE1E6" stroke-width="1.51706"/>
<path d="M297.61 104.612V103.237H294.588V102.482L297.437 98.2402H298.575V102.364H299.403V103.237H298.575V104.612H297.61ZM295.662 102.364H297.664V99.3234L295.662 102.364Z" fill="#D4D3D4"/>
<path d="M58.6696 132.839V124.343H61.6552C62.2539 124.343 62.7474 124.44 63.1358 124.635C63.5323 124.821 63.8276 125.08 64.0218 125.411C64.2159 125.735 64.313 126.099 64.313 126.504C64.313 127.054 64.1634 127.487 63.864 127.802C63.5727 128.118 63.2208 128.336 62.8081 128.458C63.1237 128.514 63.4109 128.64 63.6698 128.834C63.9287 129.028 64.131 129.271 64.2766 129.562C64.4304 129.853 64.5072 130.173 64.5072 130.521C64.5072 130.95 64.402 131.342 64.1917 131.698C63.9813 132.046 63.6698 132.325 63.2572 132.535C62.8445 132.738 62.3429 132.839 61.7522 132.839H58.6696ZM59.689 128.057H61.5823C62.1244 128.057 62.5411 127.932 62.8324 127.681C63.1237 127.422 63.2693 127.066 63.2693 126.613C63.2693 126.184 63.1237 125.84 62.8324 125.581C62.5492 125.322 62.1204 125.193 61.5459 125.193H59.689V128.057ZM59.689 131.989H61.643C62.2256 131.989 62.6746 131.856 62.9902 131.589C63.3057 131.314 63.4635 130.933 63.4635 130.448C63.4635 129.971 63.2976 129.59 62.9659 129.307C62.6342 129.016 62.1851 128.87 61.6187 128.87H59.689V131.989ZM67.9123 132.985C67.4106 132.985 66.9939 132.9 66.6622 132.73C66.3305 132.56 66.0837 132.333 65.9219 132.05C65.7601 131.767 65.6791 131.459 65.6791 131.128C65.6791 130.513 65.9138 130.039 66.3831 129.708C66.8523 129.376 67.4915 129.21 68.3006 129.21H69.9269V129.137C69.9269 128.611 69.7894 128.215 69.5143 127.948C69.2392 127.673 68.871 127.535 68.4099 127.535C68.0134 127.535 67.6695 127.636 67.3783 127.839C67.0951 128.033 66.9171 128.32 66.8443 128.7H65.8005C65.841 128.263 65.9866 127.895 66.2374 127.596C66.4963 127.297 66.8159 127.07 67.1962 126.916C67.5765 126.754 67.981 126.674 68.4099 126.674C69.2513 126.674 69.8824 126.9 70.3031 127.353C70.732 127.798 70.9464 128.393 70.9464 129.137V132.839H70.0361L69.9755 131.759C69.8055 132.099 69.5547 132.39 69.223 132.633C68.8994 132.867 68.4624 132.985 67.9123 132.985ZM68.07 132.123C68.4584 132.123 68.7901 132.022 69.0652 131.819C69.3484 131.617 69.5628 131.354 69.7085 131.031C69.8541 130.707 69.9269 130.367 69.9269 130.011V129.999H68.3856C67.7868 129.999 67.3621 130.104 67.1113 130.314C66.8685 130.517 66.7472 130.772 66.7472 131.079C66.7472 131.395 66.8604 131.649 67.087 131.844C67.3216 132.03 67.6493 132.123 68.07 132.123ZM74.7817 132.985C74.0616 132.985 73.4629 132.802 72.9855 132.438C72.5081 132.074 72.229 131.581 72.1481 130.958H73.1918C73.2565 131.273 73.4224 131.548 73.6894 131.783C73.9645 132.01 74.3326 132.123 74.7938 132.123C75.2226 132.123 75.5382 132.034 75.7405 131.856C75.9427 131.67 76.0439 131.451 76.0439 131.2C76.0439 130.836 75.9104 130.594 75.6434 130.472C75.3845 130.351 75.0163 130.242 74.539 130.145C74.2153 130.08 73.8917 129.987 73.568 129.865C73.2444 129.744 72.9734 129.574 72.7549 129.356C72.5364 129.129 72.4272 128.834 72.4272 128.47C72.4272 127.944 72.6214 127.515 73.0098 127.183C73.4062 126.843 73.9402 126.674 74.6118 126.674C75.251 126.674 75.7728 126.835 76.1774 127.159C76.59 127.475 76.8287 127.928 76.8934 128.518H75.8861C75.8457 128.211 75.7122 127.972 75.4856 127.802C75.2671 127.624 74.9718 127.535 74.5996 127.535C74.2355 127.535 73.9524 127.612 73.7501 127.766C73.5559 127.92 73.4588 128.122 73.4588 128.373C73.4588 128.615 73.5842 128.806 73.835 128.943C74.094 129.081 74.4419 129.198 74.8788 129.295C75.251 129.376 75.6029 129.477 75.9347 129.598C76.2745 129.712 76.5496 129.886 76.7599 130.12C76.9784 130.347 77.0876 130.679 77.0876 131.115C77.0957 131.658 76.8894 132.107 76.4687 132.463C76.056 132.811 75.4937 132.985 74.7817 132.985ZM79.163 125.484C78.9607 125.484 78.7908 125.419 78.6532 125.29C78.5238 125.152 78.459 124.983 78.459 124.78C78.459 124.586 78.5238 124.424 78.6532 124.295C78.7908 124.165 78.9607 124.101 79.163 124.101C79.3571 124.101 79.523 124.165 79.6605 124.295C79.7981 124.424 79.8669 124.586 79.8669 124.78C79.8669 124.983 79.7981 125.152 79.6605 125.29C79.523 125.419 79.3571 125.484 79.163 125.484ZM78.6532 132.839V126.819H79.6727V132.839H78.6532ZM84.2149 132.985C83.6404 132.985 83.1226 132.855 82.6614 132.596C82.2083 132.329 81.8482 131.961 81.5812 131.492C81.3223 131.014 81.1929 130.46 81.1929 129.829C81.1929 129.198 81.3223 128.648 81.5812 128.178C81.8482 127.701 82.2083 127.333 82.6614 127.074C83.1226 126.807 83.6404 126.674 84.2149 126.674C84.9269 126.674 85.5256 126.86 86.011 127.232C86.5046 127.604 86.8161 128.102 86.9456 128.725H85.9018C85.8209 128.352 85.6227 128.065 85.3071 127.863C84.9916 127.653 84.6234 127.547 84.2027 127.547C83.8629 127.547 83.5433 127.632 83.2439 127.802C82.9446 127.972 82.7018 128.227 82.5157 128.567C82.3297 128.907 82.2366 129.327 82.2366 129.829C82.2366 130.331 82.3297 130.751 82.5157 131.091C82.7018 131.431 82.9446 131.69 83.2439 131.868C83.5433 132.038 83.8629 132.123 84.2027 132.123C84.6234 132.123 84.9916 132.022 85.3071 131.819C85.6227 131.609 85.8209 131.314 85.9018 130.933H86.9456C86.8242 131.54 86.5167 132.034 86.0232 132.414C85.5296 132.794 84.9269 132.985 84.2149 132.985Z" fill="#091E42"/>
<path d="M125.42 132.839V124.343H128.211C128.875 124.343 129.421 124.453 129.85 124.671C130.279 124.889 130.594 125.185 130.797 125.557C131.007 125.929 131.112 126.35 131.112 126.819C131.112 127.28 131.011 127.697 130.809 128.069C130.606 128.441 130.291 128.741 129.862 128.967C129.433 129.186 128.883 129.295 128.211 129.295H126.44V132.839H125.42ZM126.44 128.433H128.187C128.867 128.433 129.348 128.292 129.631 128.009C129.923 127.717 130.068 127.321 130.068 126.819C130.068 126.309 129.923 125.913 129.631 125.63C129.348 125.339 128.867 125.193 128.187 125.193H126.44V128.433ZM134.106 132.985C133.604 132.985 133.187 132.9 132.856 132.73C132.524 132.56 132.277 132.333 132.115 132.05C131.954 131.767 131.873 131.459 131.873 131.128C131.873 130.513 132.107 130.039 132.577 129.708C133.046 129.376 133.685 129.21 134.494 129.21H136.12V129.137C136.12 128.611 135.983 128.215 135.708 127.948C135.433 127.673 135.064 127.535 134.603 127.535C134.207 127.535 133.863 127.636 133.572 127.839C133.289 128.033 133.111 128.32 133.038 128.7H131.994C132.034 128.263 132.18 127.895 132.431 127.596C132.69 127.297 133.009 127.07 133.39 126.916C133.77 126.754 134.174 126.674 134.603 126.674C135.445 126.674 136.076 126.9 136.497 127.353C136.925 127.798 137.14 128.393 137.14 129.137V132.839H136.23L136.169 131.759C135.999 132.099 135.748 132.39 135.416 132.633C135.093 132.867 134.656 132.985 134.106 132.985ZM134.263 132.123C134.652 132.123 134.984 132.022 135.259 131.819C135.542 131.617 135.756 131.354 135.902 131.031C136.048 130.707 136.12 130.367 136.12 130.011V129.999H134.579C133.98 129.999 133.556 130.104 133.305 130.314C133.062 130.517 132.941 130.772 132.941 131.079C132.941 131.395 133.054 131.649 133.28 131.844C133.515 132.03 133.843 132.123 134.263 132.123ZM139.147 135.509L140.64 132.256H140.288L137.897 126.819H139.001L140.992 131.504L143.103 126.819H144.159L140.215 135.509H139.147ZM145.235 132.839V126.819H146.158L146.23 127.693C146.425 127.369 146.684 127.119 147.007 126.941C147.331 126.763 147.695 126.674 148.099 126.674C148.577 126.674 148.985 126.771 149.325 126.965C149.673 127.159 149.94 127.454 150.126 127.851C150.337 127.487 150.624 127.199 150.988 126.989C151.36 126.779 151.761 126.674 152.189 126.674C152.91 126.674 153.484 126.892 153.913 127.329C154.342 127.758 154.556 128.421 154.556 129.319V132.839H153.549V129.429C153.549 128.806 153.423 128.336 153.172 128.021C152.922 127.705 152.562 127.547 152.092 127.547C151.607 127.547 151.202 127.738 150.879 128.118C150.563 128.49 150.405 129.024 150.405 129.72V132.839H149.386V129.429C149.386 128.806 149.26 128.336 149.01 128.021C148.759 127.705 148.399 127.547 147.93 127.547C147.452 127.547 147.052 127.738 146.728 128.118C146.412 128.49 146.255 129.024 146.255 129.72V132.839H145.235ZM158.798 132.985C158.224 132.985 157.714 132.855 157.269 132.596C156.824 132.329 156.472 131.961 156.213 131.492C155.962 131.022 155.837 130.468 155.837 129.829C155.837 129.198 155.962 128.648 156.213 128.178C156.464 127.701 156.812 127.333 157.257 127.074C157.71 126.807 158.232 126.674 158.822 126.674C159.405 126.674 159.907 126.807 160.327 127.074C160.756 127.333 161.084 127.677 161.31 128.106C161.537 128.534 161.65 128.996 161.65 129.489C161.65 129.578 161.646 129.667 161.638 129.756C161.638 129.845 161.638 129.946 161.638 130.06H156.844C156.868 130.521 156.974 130.905 157.16 131.213C157.354 131.512 157.593 131.738 157.876 131.892C158.167 132.046 158.474 132.123 158.798 132.123C159.219 132.123 159.571 132.026 159.854 131.832C160.137 131.637 160.343 131.374 160.473 131.043H161.48C161.318 131.601 161.007 132.066 160.546 132.438C160.093 132.802 159.51 132.985 158.798 132.985ZM158.798 127.535C158.313 127.535 157.88 127.685 157.499 127.984C157.127 128.276 156.913 128.704 156.856 129.271H160.643C160.619 128.729 160.432 128.304 160.085 127.996C159.737 127.689 159.308 127.535 158.798 127.535ZM163.001 132.839V126.819H163.924L163.984 127.899C164.179 127.519 164.458 127.22 164.822 127.001C165.186 126.783 165.599 126.674 166.06 126.674C166.772 126.674 167.338 126.892 167.759 127.329C168.188 127.758 168.402 128.421 168.402 129.319V132.839H167.383V129.429C167.383 128.174 166.865 127.547 165.829 127.547C165.311 127.547 164.879 127.738 164.531 128.118C164.191 128.49 164.021 129.024 164.021 129.72V132.839H163.001ZM172.325 132.839C171.775 132.839 171.342 132.705 171.027 132.438C170.711 132.171 170.553 131.69 170.553 130.994V127.681H169.51V126.819H170.553L170.687 125.375H171.573V126.819H173.345V127.681H171.573V130.994C171.573 131.374 171.65 131.633 171.804 131.771C171.957 131.9 172.228 131.965 172.617 131.965H173.248V132.839H172.325Z" fill="#091E42"/>
<path d="M214.961 132.839L211.769 124.343H212.874L215.556 131.759L218.262 124.343H219.343L216.151 132.839H214.961ZM221.066 125.484C220.863 125.484 220.693 125.419 220.556 125.29C220.426 125.152 220.362 124.983 220.362 124.78C220.362 124.586 220.426 124.424 220.556 124.295C220.693 124.165 220.863 124.101 221.066 124.101C221.26 124.101 221.426 124.165 221.563 124.295C221.701 124.424 221.77 124.586 221.77 124.78C221.77 124.983 221.701 125.152 221.563 125.29C221.426 125.419 221.26 125.484 221.066 125.484ZM220.556 132.839V126.819H221.575V132.839H220.556ZM225.656 132.985C224.936 132.985 224.337 132.802 223.86 132.438C223.383 132.074 223.104 131.581 223.023 130.958H224.066C224.131 131.273 224.297 131.548 224.564 131.783C224.839 132.01 225.207 132.123 225.668 132.123C226.097 132.123 226.413 132.034 226.615 131.856C226.817 131.67 226.919 131.451 226.919 131.2C226.919 130.836 226.785 130.594 226.518 130.472C226.259 130.351 225.891 130.242 225.414 130.145C225.09 130.08 224.766 129.987 224.443 129.865C224.119 129.744 223.848 129.574 223.63 129.356C223.411 129.129 223.302 128.834 223.302 128.47C223.302 127.944 223.496 127.515 223.884 127.183C224.281 126.843 224.815 126.674 225.486 126.674C226.126 126.674 226.647 126.835 227.052 127.159C227.465 127.475 227.703 127.928 227.768 128.518H226.761C226.72 128.211 226.587 127.972 226.36 127.802C226.142 127.624 225.846 127.535 225.474 127.535C225.11 127.535 224.827 127.612 224.625 127.766C224.431 127.92 224.333 128.122 224.333 128.373C224.333 128.615 224.459 128.806 224.71 128.943C224.969 129.081 225.316 129.198 225.753 129.295C226.126 129.376 226.478 129.477 226.809 129.598C227.149 129.712 227.424 129.886 227.635 130.12C227.853 130.347 227.962 130.679 227.962 131.115C227.97 131.658 227.764 132.107 227.343 132.463C226.931 132.811 226.368 132.985 225.656 132.985ZM230.038 125.484C229.835 125.484 229.665 125.419 229.528 125.29C229.398 125.152 229.334 124.983 229.334 124.78C229.334 124.586 229.398 124.424 229.528 124.295C229.665 124.165 229.835 124.101 230.038 124.101C230.232 124.101 230.398 124.165 230.535 124.295C230.673 124.424 230.741 124.586 230.741 124.78C230.741 124.983 230.673 125.152 230.535 125.29C230.398 125.419 230.232 125.484 230.038 125.484ZM229.528 132.839V126.819H230.547V132.839H229.528ZM234.701 132.839C234.151 132.839 233.718 132.705 233.403 132.438C233.087 132.171 232.929 131.69 232.929 130.994V127.681H231.885V126.819H232.929L233.063 125.375H233.949V126.819H235.721V127.681H233.949V130.994C233.949 131.374 234.026 131.633 234.179 131.771C234.333 131.9 234.604 131.965 234.992 131.965H235.623V132.839H234.701Z" fill="#091E42"/>
<path d="M266.001 132.839V124.343H268.61C270.107 124.343 271.207 124.724 271.911 125.484C272.623 126.245 272.979 127.288 272.979 128.615C272.979 129.918 272.623 130.95 271.911 131.71C271.207 132.463 270.107 132.839 268.61 132.839H266.001ZM267.02 131.989H268.586C269.411 131.989 270.066 131.856 270.552 131.589C271.045 131.314 271.397 130.925 271.608 130.424C271.818 129.914 271.923 129.311 271.923 128.615C271.923 127.903 271.818 127.293 271.608 126.783C271.397 126.273 271.045 125.881 270.552 125.606C270.066 125.33 269.411 125.193 268.586 125.193H267.02V131.989ZM277.133 132.985C276.567 132.985 276.057 132.855 275.604 132.596C275.151 132.337 274.791 131.973 274.524 131.504C274.265 131.026 274.136 130.468 274.136 129.829C274.136 129.19 274.269 128.636 274.536 128.166C274.803 127.689 275.163 127.321 275.616 127.062C276.077 126.803 276.591 126.674 277.158 126.674C277.724 126.674 278.234 126.803 278.687 127.062C279.14 127.321 279.496 127.689 279.755 128.166C280.022 128.636 280.155 129.19 280.155 129.829C280.155 130.468 280.022 131.026 279.755 131.504C279.488 131.973 279.124 132.337 278.662 132.596C278.209 132.855 277.7 132.985 277.133 132.985ZM277.133 132.111C277.481 132.111 277.805 132.026 278.104 131.856C278.404 131.686 278.646 131.431 278.832 131.091C279.018 130.751 279.112 130.331 279.112 129.829C279.112 129.327 279.018 128.907 278.832 128.567C278.654 128.227 278.416 127.972 278.116 127.802C277.817 127.632 277.497 127.547 277.158 127.547C276.81 127.547 276.486 127.632 276.187 127.802C275.887 127.972 275.645 128.227 275.458 128.567C275.272 128.907 275.179 129.327 275.179 129.829C275.179 130.331 275.272 130.751 275.458 131.091C275.645 131.431 275.883 131.686 276.175 131.856C276.474 132.026 276.793 132.111 277.133 132.111ZM284.34 132.985C283.765 132.985 283.248 132.855 282.786 132.596C282.333 132.329 281.973 131.961 281.706 131.492C281.447 131.014 281.318 130.46 281.318 129.829C281.318 129.198 281.447 128.648 281.706 128.178C281.973 127.701 282.333 127.333 282.786 127.074C283.248 126.807 283.765 126.674 284.34 126.674C285.052 126.674 285.651 126.86 286.136 127.232C286.63 127.604 286.941 128.102 287.071 128.725H286.027C285.946 128.352 285.748 128.065 285.432 127.863C285.117 127.653 284.748 127.547 284.328 127.547C283.988 127.547 283.668 127.632 283.369 127.802C283.07 127.972 282.827 128.227 282.641 128.567C282.455 128.907 282.362 129.327 282.362 129.829C282.362 130.331 282.455 130.751 282.641 131.091C282.827 131.431 283.07 131.69 283.369 131.868C283.668 132.038 283.988 132.123 284.328 132.123C284.748 132.123 285.117 132.022 285.432 131.819C285.748 131.609 285.946 131.314 286.027 130.933H287.071C286.949 131.54 286.642 132.034 286.148 132.414C285.655 132.794 285.052 132.985 284.34 132.985ZM290.691 132.985C289.979 132.985 289.413 132.77 288.992 132.341C288.571 131.904 288.361 131.237 288.361 130.339V126.819H289.38V130.23C289.38 131.484 289.894 132.111 290.922 132.111C291.448 132.111 291.88 131.925 292.22 131.552C292.568 131.172 292.742 130.634 292.742 129.938V126.819H293.762V132.839H292.839L292.766 131.759C292.58 132.139 292.301 132.438 291.929 132.657C291.565 132.875 291.152 132.985 290.691 132.985ZM295.44 132.839V126.819H296.362L296.435 127.693C296.629 127.369 296.888 127.119 297.212 126.941C297.535 126.763 297.899 126.674 298.304 126.674C298.781 126.674 299.19 126.771 299.53 126.965C299.878 127.159 300.145 127.454 300.331 127.851C300.541 127.487 300.828 127.199 301.192 126.989C301.564 126.779 301.965 126.674 302.394 126.674C303.114 126.674 303.688 126.892 304.117 127.329C304.546 127.758 304.76 128.421 304.76 129.319V132.839H303.753V129.429C303.753 128.806 303.628 128.336 303.377 128.021C303.126 127.705 302.766 127.547 302.297 127.547C301.811 127.547 301.407 127.738 301.083 128.118C300.768 128.49 300.61 129.024 300.61 129.72V132.839H299.59V129.429C299.59 128.806 299.465 128.336 299.214 128.021C298.963 127.705 298.603 127.547 298.134 127.547C297.657 127.547 297.256 127.738 296.932 128.118C296.617 128.49 296.459 129.024 296.459 129.72V132.839H295.44ZM309.003 132.985C308.428 132.985 307.918 132.855 307.473 132.596C307.028 132.329 306.676 131.961 306.417 131.492C306.167 131.022 306.041 130.468 306.041 129.829C306.041 129.198 306.167 128.648 306.417 128.178C306.668 127.701 307.016 127.333 307.461 127.074C307.914 126.807 308.436 126.674 309.027 126.674C309.609 126.674 310.111 126.807 310.532 127.074C310.961 127.333 311.288 127.677 311.515 128.106C311.741 128.534 311.855 128.996 311.855 129.489C311.855 129.578 311.851 129.667 311.842 129.756C311.842 129.845 311.842 129.946 311.842 130.06H307.049C307.073 130.521 307.178 130.905 307.364 131.213C307.558 131.512 307.797 131.738 308.08 131.892C308.371 132.046 308.679 132.123 309.003 132.123C309.423 132.123 309.775 132.026 310.058 131.832C310.342 131.637 310.548 131.374 310.677 131.043H311.685C311.523 131.601 311.211 132.066 310.75 132.438C310.297 132.802 309.715 132.985 309.003 132.985ZM309.003 127.535C308.517 127.535 308.084 127.685 307.704 127.984C307.332 128.276 307.117 128.704 307.061 129.271H310.847C310.823 128.729 310.637 128.304 310.289 127.996C309.941 127.689 309.512 127.535 309.003 127.535ZM313.206 132.839V126.819H314.128L314.189 127.899C314.383 127.519 314.662 127.22 315.026 127.001C315.39 126.783 315.803 126.674 316.264 126.674C316.976 126.674 317.543 126.892 317.963 127.329C318.392 127.758 318.607 128.421 318.607 129.319V132.839H317.587V129.429C317.587 128.174 317.069 127.547 316.034 127.547C315.516 127.547 315.083 127.738 314.735 128.118C314.395 128.49 314.225 129.024 314.225 129.72V132.839H313.206ZM322.53 132.839C321.98 132.839 321.547 132.705 321.231 132.438C320.916 132.171 320.758 131.69 320.758 130.994V127.681H319.714V126.819H320.758L320.891 125.375H321.777V126.819H323.549V127.681H321.777V130.994C321.777 131.374 321.854 131.633 322.008 131.771C322.162 131.9 322.433 131.965 322.821 131.965H323.452V132.839H322.53ZM327.15 132.985C326.43 132.985 325.832 132.802 325.354 132.438C324.877 132.074 324.598 131.581 324.517 130.958H325.561C325.625 131.273 325.791 131.548 326.058 131.783C326.333 132.01 326.701 132.123 327.163 132.123C327.591 132.123 327.907 132.034 328.109 131.856C328.311 131.67 328.413 131.451 328.413 131.2C328.413 130.836 328.279 130.594 328.012 130.472C327.753 130.351 327.385 130.242 326.908 130.145C326.584 130.08 326.26 129.987 325.937 129.865C325.613 129.744 325.342 129.574 325.124 129.356C324.905 129.129 324.796 128.834 324.796 128.47C324.796 127.944 324.99 127.515 325.378 127.183C325.775 126.843 326.309 126.674 326.98 126.674C327.62 126.674 328.142 126.835 328.546 127.159C328.959 127.475 329.197 127.928 329.262 128.518H328.255C328.214 128.211 328.081 127.972 327.854 127.802C327.636 127.624 327.341 127.535 326.968 127.535C326.604 127.535 326.321 127.612 326.119 127.766C325.925 127.92 325.828 128.122 325.828 128.373C325.828 128.615 325.953 128.806 326.204 128.943C326.463 129.081 326.811 129.198 327.247 129.295C327.62 129.376 327.972 129.477 328.303 129.598C328.643 129.712 328.918 129.886 329.129 130.12C329.347 130.347 329.456 130.679 329.456 131.115C329.464 131.658 329.258 132.107 328.837 132.463C328.425 132.811 327.862 132.985 327.15 132.985Z" fill="#091E42"/>
<line x1="99.2365" y1="100.634" x2="121.487" y2="100.634" stroke="#DFE1E6" stroke-width="2.02274" stroke-linecap="round"/>
<line x1="176.103" y1="100.634" x2="198.353" y2="100.634" stroke="#DFE1E6" stroke-width="2.02274" stroke-linecap="round"/>
<line x1="246.899" y1="100.634" x2="269.149" y2="100.634" stroke="#DFE1E6" stroke-width="2.02274" stroke-linecap="round"/>
<rect x="61.7692" y="221.188" width="79.7841" height="34.0542" rx="1.51351" fill="#0058D8" stroke="#084CAF" stroke-width="0.972977"/>
<path opacity="0.9" d="M82.344 242.703C81.6447 242.703 81.0318 242.58 80.5051 242.335C79.9784 242.09 79.5652 241.74 79.2655 241.286C78.9749 240.832 78.825 240.291 78.816 239.665H80.3416C80.3507 240.173 80.5278 240.605 80.8728 240.959C81.2179 241.313 81.7038 241.49 82.3304 241.49C82.8843 241.49 83.3157 241.359 83.6244 241.095C83.9423 240.823 84.1012 240.478 84.1012 240.06C84.1012 239.724 84.024 239.451 83.8696 239.243C83.7243 239.034 83.52 238.861 83.2566 238.725C83.0024 238.589 82.7072 238.466 82.3712 238.357C82.0352 238.248 81.6811 238.13 81.3087 238.003C80.5732 237.758 80.0192 237.44 79.6469 237.05C79.2836 236.659 79.102 236.146 79.102 235.51C79.0929 234.974 79.2155 234.507 79.4698 234.107C79.7332 233.708 80.0964 233.399 80.5595 233.181C81.0318 232.954 81.5812 232.84 82.2078 232.84C82.8253 232.84 83.3656 232.954 83.8287 233.181C84.301 233.408 84.6688 233.726 84.9321 234.134C85.1955 234.534 85.3317 235.002 85.3408 235.538H83.8151C83.8151 235.292 83.7516 235.061 83.6244 234.843C83.4973 234.616 83.3111 234.43 83.0659 234.284C82.8207 234.139 82.5211 234.066 82.1669 234.066C81.7128 234.057 81.336 234.171 81.0363 234.407C80.7457 234.643 80.6004 234.97 80.6004 235.388C80.6004 235.76 80.7094 236.046 80.9273 236.246C81.1453 236.446 81.445 236.614 81.8264 236.75C82.2078 236.877 82.6437 237.027 83.134 237.199C83.6063 237.354 84.0285 237.54 84.4009 237.758C84.7732 237.976 85.0683 238.262 85.2863 238.616C85.5133 238.97 85.6268 239.42 85.6268 239.965C85.6268 240.446 85.5042 240.895 85.259 241.313C85.0138 241.722 84.646 242.058 84.1557 242.321C83.6653 242.575 83.0614 242.703 82.344 242.703ZM89.6437 242.703C88.8264 242.703 88.1817 242.448 87.7094 241.94C87.2463 241.431 87.0147 240.673 87.0147 239.665V235.783H88.4586V239.515C88.4586 240.823 88.9944 241.477 90.066 241.477C90.6018 241.477 91.0422 241.286 91.3873 240.904C91.7324 240.523 91.9049 239.978 91.9049 239.27V235.783H93.3488V242.539H92.0684L91.9594 241.354C91.7505 241.772 91.4418 242.103 91.0331 242.348C90.6336 242.584 90.1704 242.703 89.6437 242.703ZM98.9861 242.703C98.4594 242.703 97.9917 242.598 97.583 242.389C97.1835 242.18 96.8656 241.885 96.6295 241.504L96.4797 242.539H95.1856V232.731H96.6295V236.832C96.8475 236.514 97.1471 236.232 97.5285 235.987C97.9099 235.742 98.4003 235.619 98.9997 235.619C99.6535 235.619 100.23 235.774 100.73 236.082C101.229 236.391 101.62 236.813 101.901 237.349C102.192 237.885 102.337 238.493 102.337 239.175C102.337 239.856 102.192 240.464 101.901 241C101.62 241.527 101.229 241.944 100.73 242.253C100.23 242.553 99.649 242.703 98.9861 242.703ZM98.7409 241.449C99.3584 241.449 99.8669 241.24 100.266 240.823C100.666 240.396 100.866 239.842 100.866 239.161C100.866 238.716 100.775 238.321 100.593 237.976C100.412 237.631 100.162 237.363 99.8442 237.172C99.5264 236.972 99.1586 236.872 98.7409 236.872C98.1234 236.872 97.6148 237.086 97.2152 237.513C96.8248 237.939 96.6295 238.489 96.6295 239.161C96.6295 239.842 96.8248 240.396 97.2152 240.823C97.6148 241.24 98.1234 241.449 98.7409 241.449ZM103.899 242.539V235.783H105.179L105.302 236.736C105.52 236.391 105.806 236.119 106.16 235.919C106.523 235.719 106.941 235.619 107.413 235.619C108.485 235.619 109.229 236.042 109.647 236.886C109.892 236.496 110.219 236.187 110.628 235.96C111.046 235.733 111.495 235.619 111.976 235.619C112.821 235.619 113.484 235.874 113.965 236.382C114.446 236.891 114.687 237.649 114.687 238.657V242.539H113.243V238.807C113.243 237.499 112.744 236.845 111.745 236.845C111.236 236.845 110.819 237.036 110.492 237.417C110.174 237.799 110.015 238.344 110.015 239.052V242.539H108.571V238.807C108.571 237.499 108.067 236.845 107.059 236.845C106.559 236.845 106.146 237.036 105.819 237.417C105.502 237.799 105.343 238.344 105.343 239.052V242.539H103.899ZM117.194 234.502C116.921 234.502 116.694 234.421 116.513 234.257C116.34 234.085 116.254 233.871 116.254 233.617C116.254 233.363 116.34 233.154 116.513 232.99C116.694 232.818 116.921 232.731 117.194 232.731C117.466 232.731 117.689 232.818 117.861 232.99C118.043 233.154 118.134 233.363 118.134 233.617C118.134 233.871 118.043 234.085 117.861 234.257C117.689 234.421 117.466 234.502 117.194 234.502ZM116.472 242.539V235.783H117.916V242.539H116.472ZM122.655 242.539C121.992 242.539 121.465 242.38 121.075 242.062C120.684 241.735 120.489 241.159 120.489 240.332V236.995H119.331V235.783H120.489L120.666 234.066H121.933V235.783H123.84V236.995H121.933V240.332C121.933 240.705 122.01 240.963 122.165 241.109C122.328 241.245 122.605 241.313 122.996 241.313H123.772V242.539H122.655Z" fill="white"/>
</g>
<rect x="61.2812" y="161.011" width="179.07" height="14.0447" rx="7.02236" fill="#D9D9D9"/>
<rect x="61.2812" y="185.589" width="103.58" height="14.0447" rx="7.02236" fill="#D9D9D9"/>
</g>
<path fill-rule="evenodd" clip-rule="evenodd" d="M15.1092 226.638C30.2184 241.747 60.4368 241.747 120.874 241.747C139.4 241.747 155.087 241.747 168.369 241.312C181.653 241.748 197.342 241.748 215.871 241.748C276.307 241.748 306.526 241.748 321.635 226.638C336.744 211.529 336.744 181.311 336.744 120.874C336.744 60.4371 336.744 30.2187 321.635 15.1095C306.526 0.000335693 276.307 0.000335693 215.871 0.000335693C197.344 0.000335693 181.657 0.000335693 168.375 0.435562C155.091 0.000152588 139.403 0.000152588 120.874 0.000152588C60.4368 0.000152588 30.2184 0.000152588 15.1092 15.1093C0 30.2186 0 60.437 0 120.874C0 181.311 0 211.529 15.1092 226.638Z" fill="url(#paint0_linear_2060_12253)"/>
<defs>
<linearGradient id="paint0_linear_2060_12253" x1="201.636" y1="241.471" x2="201.636" y2="192.602" gradientUnits="userSpaceOnUse">
<stop stop-color="#9747FF" stop-opacity="0.08"/>
<stop offset="1" stop-color="#9747FF" stop-opacity="0"/>
</linearGradient>
</defs>
</svg>
