<svg width="338" height="242" viewBox="0 0 338 242" fill="none" xmlns="http://www.w3.org/2000/svg">
<path fill-rule="evenodd" clip-rule="evenodd" d="M16.1092 226.638C31.2184 241.748 61.4368 241.748 121.874 241.748C140.403 241.748 156.091 241.748 169.375 241.312C182.657 241.747 198.344 241.747 216.871 241.747C277.307 241.747 307.526 241.747 322.635 226.638C337.744 211.529 337.744 181.311 337.744 120.874C337.744 60.437 337.744 30.2186 322.635 15.1093C307.526 0.000152588 277.307 0.000152588 216.871 0.000152588C198.342 0.000152588 182.653 0.000152588 169.369 0.435562C156.087 0.000335693 140.4 0.000335693 121.874 0.000335693C61.4368 0.000335693 31.2184 0.000335693 16.1092 15.1095C1 30.2187 1 60.4371 1 120.874C1 181.311 1 211.529 16.1092 226.638Z" fill="#00848B"/>
<mask id="mask0_2098_11890" style="mask-type:alpha" maskUnits="userSpaceOnUse" x="1" y="0" width="337" height="242">
<path fill-rule="evenodd" clip-rule="evenodd" d="M16.1092 226.638C31.2184 241.748 61.4368 241.748 121.874 241.748C140.403 241.748 156.091 241.748 169.375 241.312C182.657 241.747 198.344 241.747 216.871 241.747C277.307 241.747 307.526 241.747 322.635 226.638C337.744 211.529 337.744 181.311 337.744 120.874C337.744 60.437 337.744 30.2186 322.635 15.1094C307.526 0.000167847 277.307 0.000167847 216.871 0.000167847C198.342 0.000167847 182.653 0.000167847 169.369 0.435577C156.087 0.000350952 140.4 0.000350952 121.874 0.000350952C61.4368 0.000350952 31.2184 0.000350952 16.1092 15.1096C1 30.2188 1 60.4371 1 120.874C1 181.311 1 211.529 16.1092 226.638Z" fill="#00848B"/>
</mask>
<g mask="url(#mask0_2098_11890)">
<path d="M28 45.0005C28 38.3731 33.3726 33.0005 40 33.0005H341C347.627 33.0005 353 38.3731 353 45.0005V242H28V45.0005Z" fill="#FBFBFB"/>
<path d="M85.036 67.0005V57.2005H91V58.1665H86.212V61.6105H90.286V62.5625H86.212V67.0005H85.036ZM95.3077 67.1685C94.6544 67.1685 94.0664 67.0192 93.5437 66.7205C93.0211 66.4218 92.6057 66.0018 92.2977 65.4605C91.9991 64.9098 91.8497 64.2658 91.8497 63.5285C91.8497 62.7912 92.0037 62.1518 92.3117 61.6105C92.6197 61.0598 93.0351 60.6352 93.5577 60.3365C94.0897 60.0378 94.6824 59.8885 95.3357 59.8885C95.9891 59.8885 96.5771 60.0378 97.0997 60.3365C97.6224 60.6352 98.0331 61.0598 98.3317 61.6105C98.6397 62.1518 98.7937 62.7912 98.7937 63.5285C98.7937 64.2658 98.6397 64.9098 98.3317 65.4605C98.0237 66.0018 97.6037 66.4218 97.0717 66.7205C96.5491 67.0192 95.9611 67.1685 95.3077 67.1685ZM95.3077 66.1605C95.7091 66.1605 96.0824 66.0625 96.4277 65.8665C96.7731 65.6705 97.0531 65.3765 97.2677 64.9845C97.4824 64.5925 97.5897 64.1072 97.5897 63.5285C97.5897 62.9498 97.4824 62.4645 97.2677 62.0725C97.0624 61.6805 96.7871 61.3865 96.4417 61.1905C96.0964 60.9945 95.7277 60.8965 95.3357 60.8965C94.9344 60.8965 94.5611 60.9945 94.2157 61.1905C93.8704 61.3865 93.5904 61.6805 93.3757 62.0725C93.1611 62.4645 93.0537 62.9498 93.0537 63.5285C93.0537 64.1072 93.1611 64.5925 93.3757 64.9845C93.5904 65.3765 93.8657 65.6705 94.2017 65.8665C94.5471 66.0625 94.9157 66.1605 95.3077 66.1605ZM100.429 67.0005V60.0565H101.493L101.591 61.3865C101.806 60.9292 102.132 60.5652 102.571 60.2945C103.01 60.0238 103.551 59.8885 104.195 59.8885V61.1205H103.873C103.462 61.1205 103.084 61.1952 102.739 61.3445C102.394 61.4845 102.118 61.7272 101.913 62.0725C101.708 62.4178 101.605 62.8938 101.605 63.5005V67.0005H100.429ZM105.515 67.0005V60.0565H106.579L106.663 61.0645C106.887 60.6912 107.185 60.4018 107.559 60.1965C107.932 59.9912 108.352 59.8885 108.819 59.8885C109.369 59.8885 109.841 60.0005 110.233 60.2245C110.634 60.4485 110.942 60.7892 111.157 61.2465C111.399 60.8265 111.731 60.4952 112.151 60.2525C112.58 60.0098 113.042 59.8885 113.537 59.8885C114.367 59.8885 115.03 60.1405 115.525 60.6445C116.019 61.1392 116.267 61.9045 116.267 62.9405V67.0005H115.105V63.0665C115.105 62.3478 114.96 61.8065 114.671 61.4425C114.381 61.0785 113.966 60.8965 113.425 60.8965C112.865 60.8965 112.398 61.1158 112.025 61.5545C111.661 61.9838 111.479 62.5998 111.479 63.4025V67.0005H110.303V63.0665C110.303 62.3478 110.158 61.8065 109.869 61.4425C109.579 61.0785 109.164 60.8965 108.623 60.8965C108.072 60.8965 107.61 61.1158 107.237 61.5545C106.873 61.9838 106.691 62.5998 106.691 63.4025V67.0005H105.515ZM124.403 67.1685C123.573 67.1685 122.882 66.9585 122.331 66.5385C121.781 66.1185 121.459 65.5492 121.365 64.8305H122.569C122.644 65.1945 122.835 65.5118 123.143 65.7825C123.461 66.0438 123.885 66.1745 124.417 66.1745C124.912 66.1745 125.276 66.0718 125.509 65.8665C125.743 65.6518 125.859 65.3998 125.859 65.1105C125.859 64.6905 125.705 64.4105 125.397 64.2705C125.099 64.1305 124.674 64.0045 124.123 63.8925C123.75 63.8178 123.377 63.7105 123.003 63.5705C122.63 63.4305 122.317 63.2345 122.065 62.9825C121.813 62.7212 121.687 62.3805 121.687 61.9605C121.687 61.3538 121.911 60.8592 122.359 60.4765C122.817 60.0845 123.433 59.8885 124.207 59.8885C124.945 59.8885 125.547 60.0752 126.013 60.4485C126.489 60.8125 126.765 61.3352 126.839 62.0165H125.677C125.631 61.6618 125.477 61.3865 125.215 61.1905C124.963 60.9852 124.623 60.8825 124.193 60.8825C123.773 60.8825 123.447 60.9712 123.213 61.1485C122.989 61.3258 122.877 61.5592 122.877 61.8485C122.877 62.1285 123.022 62.3478 123.311 62.5065C123.61 62.6652 124.011 62.8005 124.515 62.9125C124.945 63.0058 125.351 63.1225 125.733 63.2625C126.125 63.3932 126.443 63.5938 126.685 63.8645C126.937 64.1258 127.063 64.5085 127.063 65.0125C127.073 65.6378 126.835 66.1558 126.349 66.5665C125.873 66.9678 125.225 67.1685 124.403 67.1685ZM131.277 67.1685C130.456 67.1685 129.803 66.9212 129.317 66.4265C128.832 65.9225 128.589 65.1525 128.589 64.1165V60.0565H129.765V63.9905C129.765 65.4372 130.358 66.1605 131.543 66.1605C132.15 66.1605 132.649 65.9458 133.041 65.5165C133.443 65.0778 133.643 64.4572 133.643 63.6545V60.0565H134.819V67.0005H133.755L133.671 65.7545C133.457 66.1932 133.135 66.5385 132.705 66.7905C132.285 67.0425 131.809 67.1685 131.277 67.1685ZM140.465 67.1685C139.896 67.1685 139.387 67.0518 138.939 66.8185C138.5 66.5852 138.164 66.2585 137.931 65.8385L137.819 67.0005H136.755V56.9205H137.931V61.2045C138.155 60.8685 138.472 60.5652 138.883 60.2945C139.303 60.0238 139.835 59.8885 140.479 59.8885C141.17 59.8885 141.772 60.0472 142.285 60.3645C142.798 60.6818 143.195 61.1158 143.475 61.6665C143.764 62.2172 143.909 62.8425 143.909 63.5425C143.909 64.2425 143.764 64.8678 143.475 65.4185C143.195 65.9598 142.794 66.3892 142.271 66.7065C141.758 67.0145 141.156 67.1685 140.465 67.1685ZM140.339 66.1465C140.806 66.1465 141.216 66.0392 141.571 65.8245C141.926 65.6005 142.206 65.2925 142.411 64.9005C142.616 64.5085 142.719 64.0512 142.719 63.5285C142.719 63.0058 142.616 62.5485 142.411 62.1565C142.206 61.7645 141.926 61.4612 141.571 61.2465C141.216 61.0225 140.806 60.9105 140.339 60.9105C139.872 60.9105 139.462 61.0225 139.107 61.2465C138.752 61.4612 138.472 61.7645 138.267 62.1565C138.062 62.5485 137.959 63.0058 137.959 63.5285C137.959 64.0512 138.062 64.5085 138.267 64.9005C138.472 65.2925 138.752 65.6005 139.107 65.8245C139.462 66.0392 139.872 66.1465 140.339 66.1465ZM145.546 67.0005V60.0565H146.61L146.694 61.0645C146.918 60.6912 147.217 60.4018 147.59 60.1965C147.963 59.9912 148.383 59.8885 148.85 59.8885C149.401 59.8885 149.872 60.0005 150.264 60.2245C150.665 60.4485 150.973 60.7892 151.188 61.2465C151.431 60.8265 151.762 60.4952 152.182 60.2525C152.611 60.0098 153.073 59.8885 153.568 59.8885C154.399 59.8885 155.061 60.1405 155.556 60.6445C156.051 61.1392 156.298 61.9045 156.298 62.9405V67.0005H155.136V63.0665C155.136 62.3478 154.991 61.8065 154.702 61.4425C154.413 61.0785 153.997 60.8965 153.456 60.8965C152.896 60.8965 152.429 61.1158 152.056 61.5545C151.692 61.9838 151.51 62.5998 151.51 63.4025V67.0005H150.334V63.0665C150.334 62.3478 150.189 61.8065 149.9 61.4425C149.611 61.0785 149.195 60.8965 148.654 60.8965C148.103 60.8965 147.641 61.1158 147.268 61.5545C146.904 61.9838 146.722 62.5998 146.722 63.4025V67.0005H145.546ZM158.784 58.5165C158.55 58.5165 158.354 58.4418 158.196 58.2925C158.046 58.1338 157.972 57.9378 157.972 57.7045C157.972 57.4805 158.046 57.2938 158.196 57.1445C158.354 56.9952 158.55 56.9205 158.784 56.9205C159.008 56.9205 159.199 56.9952 159.358 57.1445C159.516 57.2938 159.596 57.4805 159.596 57.7045C159.596 57.9378 159.516 58.1338 159.358 58.2925C159.199 58.4418 159.008 58.5165 158.784 58.5165ZM158.196 67.0005V60.0565H159.372V67.0005H158.196ZM164.163 67.0005C163.528 67.0005 163.029 66.8465 162.665 66.5385C162.301 66.2305 162.119 65.6752 162.119 64.8725V61.0505H160.915V60.0565H162.119L162.273 58.3905H163.295V60.0565H165.339V61.0505H163.295V64.8725C163.295 65.3112 163.384 65.6098 163.561 65.7685C163.738 65.9178 164.051 65.9925 164.499 65.9925H165.227V67.0005H164.163ZM169.577 67.0005C168.943 67.0005 168.443 66.8465 168.079 66.5385C167.715 66.2305 167.533 65.6752 167.533 64.8725V61.0505H166.329V60.0565H167.533L167.687 58.3905H168.709V60.0565H170.753V61.0505H168.709V64.8725C168.709 65.3112 168.798 65.6098 168.975 65.7685C169.153 65.9178 169.465 65.9925 169.913 65.9925H170.641V67.0005H169.577ZM175.178 67.1685C174.515 67.1685 173.927 67.0192 173.414 66.7205C172.901 66.4125 172.495 65.9878 172.196 65.4465C171.907 64.9052 171.762 64.2658 171.762 63.5285C171.762 62.8005 171.907 62.1658 172.196 61.6245C172.485 61.0738 172.887 60.6492 173.4 60.3505C173.923 60.0425 174.525 59.8885 175.206 59.8885C175.878 59.8885 176.457 60.0425 176.942 60.3505C177.437 60.6492 177.815 61.0458 178.076 61.5405C178.337 62.0352 178.468 62.5672 178.468 63.1365C178.468 63.2392 178.463 63.3418 178.454 63.4445C178.454 63.5472 178.454 63.6638 178.454 63.7945H172.924C172.952 64.3265 173.073 64.7698 173.288 65.1245C173.512 65.4698 173.787 65.7312 174.114 65.9085C174.45 66.0858 174.805 66.1745 175.178 66.1745C175.663 66.1745 176.069 66.0625 176.396 65.8385C176.723 65.6145 176.961 65.3112 177.11 64.9285H178.272C178.085 65.5725 177.726 66.1092 177.194 66.5385C176.671 66.9585 175.999 67.1685 175.178 67.1685ZM175.178 60.8825C174.618 60.8825 174.119 61.0552 173.68 61.4005C173.251 61.7365 173.003 62.2312 172.938 62.8845H177.306C177.278 62.2592 177.063 61.7692 176.662 61.4145C176.261 61.0598 175.766 60.8825 175.178 60.8825ZM183.177 67.1685C182.486 67.1685 181.879 67.0098 181.357 66.6925C180.843 66.3752 180.442 65.9412 180.153 65.3905C179.873 64.8398 179.733 64.2145 179.733 63.5145C179.733 62.8145 179.877 62.1938 180.167 61.6525C180.456 61.1018 180.857 60.6725 181.371 60.3645C181.884 60.0472 182.491 59.8885 183.191 59.8885C183.76 59.8885 184.264 60.0052 184.703 60.2385C185.141 60.4718 185.482 60.7985 185.725 61.2185V56.9205H186.901V67.0005H185.837L185.725 65.8525C185.501 66.1885 185.179 66.4918 184.759 66.7625C184.339 67.0332 183.811 67.1685 183.177 67.1685ZM183.303 66.1465C183.769 66.1465 184.18 66.0392 184.535 65.8245C184.899 65.6005 185.179 65.2925 185.375 64.9005C185.58 64.5085 185.683 64.0512 185.683 63.5285C185.683 63.0058 185.58 62.5485 185.375 62.1565C185.179 61.7645 184.899 61.4612 184.535 61.2465C184.18 61.0225 183.769 60.9105 183.303 60.9105C182.845 60.9105 182.435 61.0225 182.071 61.2465C181.716 61.4612 181.436 61.7645 181.231 62.1565C181.035 62.5485 180.937 63.0058 180.937 63.5285C180.937 64.0512 181.035 64.5085 181.231 64.9005C181.436 65.2925 181.716 65.6005 182.071 65.8245C182.435 66.0392 182.845 66.1465 183.303 66.1465Z" fill="#525F75"/>
<path d="M85.036 141V131.2H88.256C89.0213 131.2 89.6513 131.326 90.146 131.578C90.6407 131.83 91.0047 132.171 91.238 132.6C91.4807 133.03 91.602 133.515 91.602 134.056C91.602 134.588 91.4853 135.069 91.252 135.498C91.0187 135.928 90.6547 136.273 90.16 136.534C89.6653 136.786 89.0307 136.912 88.256 136.912H86.212V141H85.036ZM86.212 135.918H88.228C89.012 135.918 89.5673 135.755 89.894 135.428C90.23 135.092 90.398 134.635 90.398 134.056C90.398 133.468 90.23 133.011 89.894 132.684C89.5673 132.348 89.012 132.18 88.228 132.18H86.212V135.918ZM93.0734 141V134.056H94.1374L94.2354 135.386C94.4501 134.929 94.7768 134.565 95.2154 134.294C95.6541 134.024 96.1954 133.888 96.8394 133.888V135.12H96.5174C96.1068 135.12 95.7288 135.195 95.3834 135.344C95.0381 135.484 94.7628 135.727 94.5574 136.072C94.3521 136.418 94.2494 136.894 94.2494 137.5V141H93.0734ZM101.064 141.168C100.41 141.168 99.8223 141.019 99.2996 140.72C98.7769 140.422 98.3616 140.002 98.0536 139.46C97.7549 138.91 97.6056 138.266 97.6056 137.528C97.6056 136.791 97.7596 136.152 98.0676 135.61C98.3756 135.06 98.7909 134.635 99.3136 134.336C99.8456 134.038 100.438 133.888 101.092 133.888C101.745 133.888 102.333 134.038 102.856 134.336C103.378 134.635 103.789 135.06 104.088 135.61C104.396 136.152 104.55 136.791 104.55 137.528C104.55 138.266 104.396 138.91 104.088 139.46C103.78 140.002 103.36 140.422 102.828 140.72C102.305 141.019 101.717 141.168 101.064 141.168ZM101.064 140.16C101.465 140.16 101.838 140.062 102.184 139.866C102.529 139.67 102.809 139.376 103.024 138.984C103.238 138.592 103.346 138.107 103.346 137.528C103.346 136.95 103.238 136.464 103.024 136.072C102.818 135.68 102.543 135.386 102.198 135.19C101.852 134.994 101.484 134.896 101.092 134.896C100.69 134.896 100.317 134.994 99.9716 135.19C99.6263 135.386 99.3463 135.68 99.1316 136.072C98.9169 136.464 98.8096 136.95 98.8096 137.528C98.8096 138.107 98.9169 138.592 99.1316 138.984C99.3463 139.376 99.6216 139.67 99.9576 139.866C100.303 140.062 100.672 140.16 101.064 140.16ZM109.377 141.168C108.714 141.168 108.117 141.019 107.585 140.72C107.062 140.412 106.647 139.988 106.339 139.446C106.04 138.896 105.891 138.256 105.891 137.528C105.891 136.8 106.04 136.166 106.339 135.624C106.647 135.074 107.062 134.649 107.585 134.35C108.117 134.042 108.714 133.888 109.377 133.888C110.198 133.888 110.889 134.103 111.449 134.532C112.018 134.962 112.377 135.536 112.527 136.254H111.323C111.229 135.825 111.001 135.494 110.637 135.26C110.273 135.018 109.848 134.896 109.363 134.896C108.971 134.896 108.602 134.994 108.257 135.19C107.911 135.386 107.631 135.68 107.417 136.072C107.202 136.464 107.095 136.95 107.095 137.528C107.095 138.107 107.202 138.592 107.417 138.984C107.631 139.376 107.911 139.675 108.257 139.88C108.602 140.076 108.971 140.174 109.363 140.174C109.848 140.174 110.273 140.058 110.637 139.824C111.001 139.582 111.229 139.241 111.323 138.802H112.527C112.387 139.502 112.032 140.072 111.463 140.51C110.893 140.949 110.198 141.168 109.377 141.168ZM117.291 141.168C116.628 141.168 116.04 141.019 115.527 140.72C115.014 140.412 114.608 139.988 114.309 139.446C114.02 138.905 113.875 138.266 113.875 137.528C113.875 136.8 114.02 136.166 114.309 135.624C114.598 135.074 115 134.649 115.513 134.35C116.036 134.042 116.638 133.888 117.319 133.888C117.991 133.888 118.57 134.042 119.055 134.35C119.55 134.649 119.928 135.046 120.189 135.54C120.45 136.035 120.581 136.567 120.581 137.136C120.581 137.239 120.576 137.342 120.567 137.444C120.567 137.547 120.567 137.664 120.567 137.794H115.037C115.065 138.326 115.186 138.77 115.401 139.124C115.625 139.47 115.9 139.731 116.227 139.908C116.563 140.086 116.918 140.174 117.291 140.174C117.776 140.174 118.182 140.062 118.509 139.838C118.836 139.614 119.074 139.311 119.223 138.928H120.385C120.198 139.572 119.839 140.109 119.307 140.538C118.784 140.958 118.112 141.168 117.291 141.168ZM117.291 134.882C116.731 134.882 116.232 135.055 115.793 135.4C115.364 135.736 115.116 136.231 115.051 136.884H119.419C119.391 136.259 119.176 135.769 118.775 135.414C118.374 135.06 117.879 134.882 117.291 134.882ZM124.8 141.168C123.969 141.168 123.278 140.958 122.728 140.538C122.177 140.118 121.855 139.549 121.762 138.83H122.966C123.04 139.194 123.232 139.512 123.54 139.782C123.857 140.044 124.282 140.174 124.814 140.174C125.308 140.174 125.672 140.072 125.906 139.866C126.139 139.652 126.256 139.4 126.256 139.11C126.256 138.69 126.102 138.41 125.794 138.27C125.495 138.13 125.07 138.004 124.52 137.892C124.146 137.818 123.773 137.71 123.4 137.57C123.026 137.43 122.714 137.234 122.462 136.982C122.21 136.721 122.084 136.38 122.084 135.96C122.084 135.354 122.308 134.859 122.756 134.476C123.213 134.084 123.829 133.888 124.604 133.888C125.341 133.888 125.943 134.075 126.41 134.448C126.886 134.812 127.161 135.335 127.236 136.016H126.074C126.027 135.662 125.873 135.386 125.612 135.19C125.36 134.985 125.019 134.882 124.59 134.882C124.17 134.882 123.843 134.971 123.61 135.148C123.386 135.326 123.274 135.559 123.274 135.848C123.274 136.128 123.418 136.348 123.708 136.506C124.006 136.665 124.408 136.8 124.912 136.912C125.341 137.006 125.747 137.122 126.13 137.262C126.522 137.393 126.839 137.594 127.082 137.864C127.334 138.126 127.46 138.508 127.46 139.012C127.469 139.638 127.231 140.156 126.746 140.566C126.27 140.968 125.621 141.168 124.8 141.168ZM131.8 141.168C130.969 141.168 130.278 140.958 129.728 140.538C129.177 140.118 128.855 139.549 128.762 138.83H129.966C130.04 139.194 130.232 139.512 130.54 139.782C130.857 140.044 131.282 140.174 131.814 140.174C132.308 140.174 132.672 140.072 132.906 139.866C133.139 139.652 133.256 139.4 133.256 139.11C133.256 138.69 133.102 138.41 132.794 138.27C132.495 138.13 132.07 138.004 131.52 137.892C131.146 137.818 130.773 137.71 130.4 137.57C130.026 137.43 129.714 137.234 129.462 136.982C129.21 136.721 129.084 136.38 129.084 135.96C129.084 135.354 129.308 134.859 129.756 134.476C130.213 134.084 130.829 133.888 131.604 133.888C132.341 133.888 132.943 134.075 133.41 134.448C133.886 134.812 134.161 135.335 134.236 136.016H133.074C133.027 135.662 132.873 135.386 132.612 135.19C132.36 134.985 132.019 134.882 131.59 134.882C131.17 134.882 130.843 134.971 130.61 135.148C130.386 135.326 130.274 135.559 130.274 135.848C130.274 136.128 130.418 136.348 130.708 136.506C131.006 136.665 131.408 136.8 131.912 136.912C132.341 137.006 132.747 137.122 133.13 137.262C133.522 137.393 133.839 137.594 134.082 137.864C134.334 138.126 134.46 138.508 134.46 139.012C134.469 139.638 134.231 140.156 133.746 140.566C133.27 140.968 132.621 141.168 131.8 141.168ZM136.854 132.516C136.62 132.516 136.424 132.442 136.266 132.292C136.116 132.134 136.042 131.938 136.042 131.704C136.042 131.48 136.116 131.294 136.266 131.144C136.424 130.995 136.62 130.92 136.854 130.92C137.078 130.92 137.269 130.995 137.428 131.144C137.586 131.294 137.666 131.48 137.666 131.704C137.666 131.938 137.586 132.134 137.428 132.292C137.269 132.442 137.078 132.516 136.854 132.516ZM136.266 141V134.056H137.442V141H136.266ZM139.489 141V134.056H140.553L140.623 135.302C140.847 134.864 141.169 134.518 141.589 134.266C142.009 134.014 142.485 133.888 143.017 133.888C143.839 133.888 144.492 134.14 144.977 134.644C145.472 135.139 145.719 135.904 145.719 136.94V141H144.543V137.066C144.543 135.62 143.946 134.896 142.751 134.896C142.154 134.896 141.655 135.116 141.253 135.554C140.861 135.984 140.665 136.6 140.665 137.402V141H139.489ZM150.245 138.816C149.853 138.816 149.494 138.765 149.167 138.662L148.467 139.32C148.57 139.395 148.696 139.46 148.845 139.516C149.004 139.563 149.228 139.61 149.517 139.656C149.806 139.694 150.212 139.736 150.735 139.782C151.668 139.848 152.336 140.062 152.737 140.426C153.138 140.79 153.339 141.266 153.339 141.854C153.339 142.256 153.227 142.638 153.003 143.002C152.788 143.366 152.452 143.665 151.995 143.898C151.547 144.132 150.968 144.248 150.259 144.248C149.634 144.248 149.078 144.164 148.593 143.996C148.108 143.838 147.73 143.59 147.459 143.254C147.188 142.928 147.053 142.512 147.053 142.008C147.053 141.747 147.123 141.462 147.263 141.154C147.403 140.856 147.664 140.571 148.047 140.3C147.842 140.216 147.664 140.128 147.515 140.034C147.375 139.932 147.244 139.82 147.123 139.698V139.376L148.313 138.2C147.762 137.734 147.487 137.118 147.487 136.352C147.487 135.895 147.594 135.48 147.809 135.106C148.024 134.733 148.336 134.439 148.747 134.224C149.158 134 149.657 133.888 150.245 133.888C150.646 133.888 151.01 133.944 151.337 134.056H153.899V134.938L152.597 134.994C152.868 135.386 153.003 135.839 153.003 136.352C153.003 136.81 152.891 137.225 152.667 137.598C152.452 137.972 152.14 138.27 151.729 138.494C151.328 138.709 150.833 138.816 150.245 138.816ZM150.245 137.85C150.74 137.85 151.132 137.724 151.421 137.472C151.72 137.211 151.869 136.838 151.869 136.352C151.869 135.876 151.72 135.512 151.421 135.26C151.132 134.999 150.74 134.868 150.245 134.868C149.741 134.868 149.34 134.999 149.041 135.26C148.752 135.512 148.607 135.876 148.607 136.352C148.607 136.838 148.752 137.211 149.041 137.472C149.34 137.724 149.741 137.85 150.245 137.85ZM148.201 141.896C148.201 142.363 148.397 142.708 148.789 142.932C149.181 143.166 149.671 143.282 150.259 143.282C150.838 143.282 151.3 143.156 151.645 142.904C152 142.652 152.177 142.316 152.177 141.896C152.177 141.598 152.056 141.336 151.813 141.112C151.57 140.898 151.122 140.772 150.469 140.734C149.956 140.697 149.512 140.65 149.139 140.594C148.756 140.8 148.504 141.019 148.383 141.252C148.262 141.495 148.201 141.71 148.201 141.896Z" fill="#525F75"/>
<path d="M84.42 206L88.032 196.2H89.278L92.876 206H91.63L90.734 203.48H86.562L85.652 206H84.42ZM86.912 202.528H90.384L88.648 197.684L86.912 202.528ZM94.2629 209.08V199.056H95.3269L95.4389 200.204C95.6629 199.868 95.9802 199.565 96.3909 199.294C96.8109 199.024 97.3429 198.888 97.9869 198.888C98.6775 198.888 99.2795 199.047 99.7929 199.364C100.306 199.682 100.703 200.116 100.983 200.666C101.272 201.217 101.417 201.842 101.417 202.542C101.417 203.242 101.272 203.868 100.983 204.418C100.703 204.96 100.302 205.389 99.7789 205.706C99.2655 206.014 98.6635 206.168 97.9729 206.168C97.4035 206.168 96.8949 206.052 96.4469 205.818C96.0082 205.585 95.6722 205.258 95.4389 204.838V209.08H94.2629ZM97.8469 205.146C98.3135 205.146 98.7242 205.039 99.0789 204.824C99.4335 204.6 99.7135 204.292 99.9189 203.9C100.124 203.508 100.227 203.051 100.227 202.528C100.227 202.006 100.124 201.548 99.9189 201.156C99.7135 200.764 99.4335 200.461 99.0789 200.246C98.7242 200.022 98.3135 199.91 97.8469 199.91C97.3802 199.91 96.9695 200.022 96.6149 200.246C96.2602 200.461 95.9802 200.764 95.7749 201.156C95.5695 201.548 95.4669 202.006 95.4669 202.528C95.4669 203.051 95.5695 203.508 95.7749 203.9C95.9802 204.292 96.2602 204.6 96.6149 204.824C96.9695 205.039 97.3802 205.146 97.8469 205.146ZM103.054 209.08V199.056H104.118L104.23 200.204C104.454 199.868 104.771 199.565 105.182 199.294C105.602 199.024 106.134 198.888 106.778 198.888C107.469 198.888 108.071 199.047 108.584 199.364C109.097 199.682 109.494 200.116 109.774 200.666C110.063 201.217 110.208 201.842 110.208 202.542C110.208 203.242 110.063 203.868 109.774 204.418C109.494 204.96 109.093 205.389 108.57 205.706C108.057 206.014 107.455 206.168 106.764 206.168C106.195 206.168 105.686 206.052 105.238 205.818C104.799 205.585 104.463 205.258 104.23 204.838V209.08H103.054ZM106.638 205.146C107.105 205.146 107.515 205.039 107.87 204.824C108.225 204.6 108.505 204.292 108.71 203.9C108.915 203.508 109.018 203.051 109.018 202.528C109.018 202.006 108.915 201.548 108.71 201.156C108.505 200.764 108.225 200.461 107.87 200.246C107.515 200.022 107.105 199.91 106.638 199.91C106.171 199.91 105.761 200.022 105.406 200.246C105.051 200.461 104.771 200.764 104.566 201.156C104.361 201.548 104.258 202.006 104.258 202.528C104.258 203.051 104.361 203.508 104.566 203.9C104.771 204.292 105.051 204.6 105.406 204.824C105.761 205.039 106.171 205.146 106.638 205.146ZM115.009 206.168C114.356 206.168 113.768 206.019 113.245 205.72C112.722 205.422 112.307 205.002 111.999 204.46C111.7 203.91 111.551 203.266 111.551 202.528C111.551 201.791 111.705 201.152 112.013 200.61C112.321 200.06 112.736 199.635 113.259 199.336C113.791 199.038 114.384 198.888 115.037 198.888C115.69 198.888 116.278 199.038 116.801 199.336C117.324 199.635 117.734 200.06 118.033 200.61C118.341 201.152 118.495 201.791 118.495 202.528C118.495 203.266 118.341 203.91 118.033 204.46C117.725 205.002 117.305 205.422 116.773 205.72C116.25 206.019 115.662 206.168 115.009 206.168ZM115.009 205.16C115.41 205.16 115.784 205.062 116.129 204.866C116.474 204.67 116.754 204.376 116.969 203.984C117.184 203.592 117.291 203.107 117.291 202.528C117.291 201.95 117.184 201.464 116.969 201.072C116.764 200.68 116.488 200.386 116.143 200.19C115.798 199.994 115.429 199.896 115.037 199.896C114.636 199.896 114.262 199.994 113.917 200.19C113.572 200.386 113.292 200.68 113.077 201.072C112.862 201.464 112.755 201.95 112.755 202.528C112.755 203.107 112.862 203.592 113.077 203.984C113.292 204.376 113.567 204.67 113.903 204.866C114.248 205.062 114.617 205.16 115.009 205.16ZM120.844 197.516C120.611 197.516 120.415 197.442 120.256 197.292C120.107 197.134 120.032 196.938 120.032 196.704C120.032 196.48 120.107 196.294 120.256 196.144C120.415 195.995 120.611 195.92 120.844 195.92C121.068 195.92 121.259 195.995 121.418 196.144C121.577 196.294 121.656 196.48 121.656 196.704C121.656 196.938 121.577 197.134 121.418 197.292C121.259 197.442 121.068 197.516 120.844 197.516ZM120.256 206V199.056H121.432V206H120.256ZM123.48 206V199.056H124.544L124.614 200.302C124.838 199.864 125.16 199.518 125.58 199.266C126 199.014 126.476 198.888 127.008 198.888C127.829 198.888 128.482 199.14 128.968 199.644C129.462 200.139 129.71 200.904 129.71 201.94V206H128.534V202.066C128.534 200.62 127.936 199.896 126.742 199.896C126.144 199.896 125.645 200.116 125.244 200.554C124.852 200.984 124.656 201.6 124.656 202.402V206H123.48ZM134.235 206C133.601 206 133.101 205.846 132.737 205.538C132.373 205.23 132.191 204.675 132.191 203.872V200.05H130.987V199.056H132.191L132.345 197.39H133.367V199.056H135.411V200.05H133.367V203.872C133.367 204.311 133.456 204.61 133.633 204.768C133.811 204.918 134.123 204.992 134.571 204.992H135.299V206H134.235ZM136.905 206V199.056H137.969L138.053 200.064C138.277 199.691 138.576 199.402 138.949 199.196C139.323 198.991 139.743 198.888 140.209 198.888C140.76 198.888 141.231 199 141.623 199.224C142.025 199.448 142.333 199.789 142.547 200.246C142.79 199.826 143.121 199.495 143.541 199.252C143.971 199.01 144.433 198.888 144.927 198.888C145.758 198.888 146.421 199.14 146.915 199.644C147.41 200.139 147.657 200.904 147.657 201.94V206H146.495V202.066C146.495 201.348 146.351 200.806 146.061 200.442C145.772 200.078 145.357 199.896 144.815 199.896C144.255 199.896 143.789 200.116 143.415 200.554C143.051 200.984 142.869 201.6 142.869 202.402V206H141.693V202.066C141.693 201.348 141.549 200.806 141.259 200.442C140.97 200.078 140.555 199.896 140.013 199.896C139.463 199.896 139.001 200.116 138.627 200.554C138.263 200.984 138.081 201.6 138.081 202.402V206H136.905ZM152.551 206.168C151.888 206.168 151.3 206.019 150.787 205.72C150.274 205.412 149.868 204.988 149.569 204.446C149.28 203.905 149.135 203.266 149.135 202.528C149.135 201.8 149.28 201.166 149.569 200.624C149.858 200.074 150.26 199.649 150.773 199.35C151.296 199.042 151.898 198.888 152.579 198.888C153.251 198.888 153.83 199.042 154.315 199.35C154.81 199.649 155.188 200.046 155.449 200.54C155.71 201.035 155.841 201.567 155.841 202.136C155.841 202.239 155.836 202.342 155.827 202.444C155.827 202.547 155.827 202.664 155.827 202.794H150.297C150.325 203.326 150.446 203.77 150.661 204.124C150.885 204.47 151.16 204.731 151.487 204.908C151.823 205.086 152.178 205.174 152.551 205.174C153.036 205.174 153.442 205.062 153.769 204.838C154.096 204.614 154.334 204.311 154.483 203.928H155.645C155.458 204.572 155.099 205.109 154.567 205.538C154.044 205.958 153.372 206.168 152.551 206.168ZM152.551 199.882C151.991 199.882 151.492 200.055 151.053 200.4C150.624 200.736 150.376 201.231 150.311 201.884H154.679C154.651 201.259 154.436 200.769 154.035 200.414C153.634 200.06 153.139 199.882 152.551 199.882ZM157.4 206V199.056H158.464L158.534 200.302C158.758 199.864 159.08 199.518 159.5 199.266C159.92 199.014 160.396 198.888 160.928 198.888C161.749 198.888 162.402 199.14 162.888 199.644C163.382 200.139 163.63 200.904 163.63 201.94V206H162.454V202.066C162.454 200.62 161.856 199.896 160.662 199.896C160.064 199.896 159.565 200.116 159.164 200.554C158.772 200.984 158.576 201.6 158.576 202.402V206H157.4ZM168.155 206C167.521 206 167.021 205.846 166.657 205.538C166.293 205.23 166.111 204.675 166.111 203.872V200.05H164.907V199.056H166.111L166.265 197.39H167.287V199.056H169.331V200.05H167.287V203.872C167.287 204.311 167.376 204.61 167.553 204.768C167.731 204.918 168.043 204.992 168.491 204.992H169.219V206H168.155Z" fill="#525F75"/>
<path d="M84 85.4291C84 83.5355 85.535 82.0005 87.4286 82.0005H173C175.209 82.0005 177 83.7913 177 86.0005C177 88.2096 175.209 90.0005 173 90.0005H88.5714C86.0467 90.0005 84 87.9538 84 85.4291Z" fill="#EEEDF0"/>
<path d="M84 159.429C84 157.536 85.535 156 87.4286 156H173C175.209 156 177 157.791 177 160C177 162.21 175.209 164 173 164H88.5714C86.0467 164 84 161.954 84 159.429Z" fill="#EEEDF0"/>
<path d="M84 103.429C84 101.536 85.535 100 87.4286 100H130C132.209 100 134 101.791 134 104C134 106.21 132.209 108 130 108H88.5714C86.0467 108 84 105.954 84 103.429Z" fill="#EEEDF0"/>
<path d="M84 177.429C84 175.536 85.535 174 87.4286 174H130C132.209 174 134 175.791 134 178C134 180.21 132.209 182 130 182H88.5714C86.0467 182 84 179.954 84 177.429Z" fill="#EEEDF0"/>
<path d="M61 82.0005C61 81.4482 61.4477 81.0005 62 81.0005V118H61V82.0005Z" fill="#038B00"/>
<path d="M61 154C61 153.448 61.4477 153 62 153V190H61V154Z" fill="#EEEDF0"/>
<path d="M61 212C61 211.448 61.4477 211 62 211V242H61V212Z" fill="#EEEDF0"/>
<path d="M50 62.0005C50 55.3731 55.3726 50.0005 62 50.0005H74V74.0005H50V62.0005Z" fill="white" fill-opacity="0.01"/>
<path d="M56.7349 62.3224C56.5543 62.1304 56.3053 62.0174 56.0419 62.0081C55.7785 61.9987 55.522 62.0937 55.3283 62.2724C55.1346 62.4511 55.0192 62.6991 55.0074 62.9624C54.9955 63.2257 55.088 63.483 55.2649 63.6784L58.8769 67.5974C59.4139 68.1234 60.2139 68.1234 60.7109 67.6274L61.0749 67.2684C62.3894 65.9756 63.7024 64.6813 65.0139 63.3854L65.0539 63.3454C66.2796 62.1375 67.4989 60.9231 68.7119 59.7024C68.8932 59.5126 68.9926 59.2591 68.9886 58.9967C68.9847 58.7343 68.8777 58.4839 68.6908 58.2996C68.5039 58.1154 68.2521 58.0119 67.9896 58.0117C67.7271 58.0115 67.4751 58.1145 67.2879 58.2984C66.0805 59.5128 64.8672 60.7211 63.6479 61.9234L63.6079 61.9634C62.3512 63.2057 61.0928 64.4464 59.8329 65.6854L56.7349 62.3224Z" fill="#038B00"/>
<circle cx="61.5" cy="135.5" r="3.5" fill="#D9D9D9"/>
<circle cx="61.5" cy="200.5" r="3.5" fill="#D9D9D9"/>
<rect x="229" y="54.0005" width="82" height="16" rx="2" fill="#FFF0B3"/>
<path d="M234.37 66.0005H235.992V63.5566H237.566C239.199 63.5566 240.289 62.5039 240.289 60.9087V60.8979C240.289 59.3027 239.199 58.25 237.566 58.25H234.37V66.0005ZM237.169 59.5337C238.098 59.5337 238.646 60.0225 238.646 60.9033V60.9141C238.646 61.7949 238.098 62.2891 237.169 62.2891H235.992V59.5337H237.169ZM241.698 66.0005H243.32V63.1646H244.647L246.092 66.0005H247.929L246.296 62.9229C247.182 62.5737 247.698 61.7197 247.698 60.7261V60.7153C247.698 59.1899 246.688 58.25 244.926 58.25H241.698V66.0005ZM243.32 61.9829V59.5176H244.728C245.539 59.5176 246.038 60.001 246.038 60.7476V60.7583C246.038 61.521 245.56 61.9829 244.749 61.9829H243.32ZM252.641 66.1992C254.929 66.1992 256.369 64.6309 256.369 62.1279V62.1172C256.369 59.6143 254.924 58.0513 252.641 58.0513C250.358 58.0513 248.908 59.6089 248.908 62.1172V62.1279C248.908 64.6309 250.337 66.1992 252.641 66.1992ZM252.641 64.8242C251.363 64.8242 250.563 63.7661 250.563 62.1279V62.1172C250.563 60.4736 251.379 59.4263 252.641 59.4263C253.898 59.4263 254.714 60.4736 254.714 62.1172V62.1279C254.714 63.7661 253.903 64.8242 252.641 64.8242ZM261.119 66.1992C262.988 66.1992 264.314 65.0928 264.481 63.4707L264.486 63.4116H262.907L262.897 63.4546C262.725 64.2817 262.053 64.8242 261.124 64.8242C259.899 64.8242 259.142 63.793 259.142 62.1279V62.1172C259.142 60.4521 259.899 59.4263 261.119 59.4263C262.043 59.4263 262.735 60.0171 262.902 60.8872V60.9248H264.481V60.8604C264.331 59.2222 262.956 58.0513 261.119 58.0513C258.868 58.0513 257.482 59.6035 257.482 62.1172V62.1279C257.482 64.6416 258.874 66.1992 261.119 66.1992ZM265.896 66.0005H271.03V64.6631H267.518V62.7026H270.832V61.4565H267.518V59.5874H271.03V58.25H265.896V66.0005ZM275.426 66.1992C277.359 66.1992 278.552 65.2271 278.552 63.6909V63.6855C278.552 62.4771 277.837 61.8218 276.199 61.4834L275.377 61.3169C274.464 61.1289 274.088 60.8281 274.088 60.3232V60.3179C274.088 59.7378 274.62 59.3726 275.42 59.3672C276.237 59.3672 276.774 59.7539 276.865 60.3071L276.876 60.3716H278.401L278.396 60.3018C278.294 59.0073 277.23 58.0513 275.42 58.0513C273.702 58.0513 272.466 59.002 272.466 60.4414V60.4468C272.466 61.623 273.159 62.375 274.771 62.7026L275.587 62.8691C276.548 63.0679 276.93 63.3525 276.93 63.8628V63.8682C276.93 64.4644 276.333 64.8779 275.469 64.8779C274.561 64.8779 273.933 64.4858 273.874 63.9058L273.868 63.8521H272.305L272.311 63.938C272.402 65.313 273.573 66.1992 275.426 66.1992ZM282.775 66.1992C284.709 66.1992 285.901 65.2271 285.901 63.6909V63.6855C285.901 62.4771 285.187 61.8218 283.549 61.4834L282.727 61.3169C281.814 61.1289 281.438 60.8281 281.438 60.3232V60.3179C281.438 59.7378 281.97 59.3726 282.77 59.3672C283.586 59.3672 284.124 59.7539 284.215 60.3071L284.226 60.3716H285.751L285.746 60.3018C285.644 59.0073 284.58 58.0513 282.77 58.0513C281.051 58.0513 279.816 59.002 279.816 60.4414V60.4468C279.816 61.623 280.509 62.375 282.12 62.7026L282.936 62.8691C283.898 63.0679 284.279 63.3525 284.279 63.8628V63.8682C284.279 64.4644 283.683 64.8779 282.818 64.8779C281.911 64.8779 281.282 64.4858 281.223 63.9058L281.218 63.8521H279.655L279.66 63.938C279.751 65.313 280.922 66.1992 282.775 66.1992ZM287.353 66.0005H288.976V58.25H287.353V66.0005ZM290.771 66.0005H292.324V61.043H292.41L295.998 66.0005H297.34V58.25H295.788V63.186H295.702L292.125 58.25H290.771V66.0005ZM302.515 66.1992C304.631 66.1992 305.952 64.9102 305.952 62.853V61.8701H302.697V63.0518H304.373L304.368 63.1968C304.335 64.1743 303.605 64.8242 302.541 64.8242C301.263 64.8242 300.452 63.7876 300.452 62.1064V62.0957C300.452 60.4468 301.226 59.4263 302.477 59.4263C303.385 59.4263 304.045 59.8828 304.266 60.6509L304.276 60.7046H305.888L305.877 60.6509C305.646 59.104 304.309 58.0513 302.477 58.0513C300.221 58.0513 298.798 59.625 298.798 62.1118V62.1226C298.798 64.647 300.21 66.1992 302.515 66.1992Z" fill="#5B4C0D"/>
</g>
<path fill-rule="evenodd" clip-rule="evenodd" d="M15.1092 226.638C30.2184 241.748 60.4368 241.748 120.874 241.748C139.403 241.748 155.091 241.748 168.375 241.312C181.657 241.747 197.344 241.747 215.871 241.747C276.307 241.747 306.526 241.747 321.635 226.638C336.744 211.529 336.744 181.311 336.744 120.874C336.744 60.437 336.744 30.2186 321.635 15.1093C306.526 0.000152588 276.307 0.000152588 215.871 0.000152588C197.342 0.000152588 181.653 0.000152588 168.369 0.435562C155.087 0.000335693 139.4 0.000335693 120.874 0.000335693C60.4368 0.000335693 30.2184 0.000335693 15.1092 15.1095C0 30.2187 0 60.4371 0 120.874C0 181.311 0 211.529 15.1092 226.638Z" fill="url(#paint0_linear_2098_11890)"/>
<defs>
<linearGradient id="paint0_linear_2098_11890" x1="201.636" y1="241.471" x2="201.636" y2="192.602" gradientUnits="userSpaceOnUse">
<stop stop-color="#034043" stop-opacity="0.15"/>
<stop offset="1" stop-color="#00848B" stop-opacity="0"/>
</linearGradient>
</defs>
</svg>
